<svg width="12" height="12" viewBox="0 0 12 12" fill="none" xmlns="http://www.w3.org/2000/svg">
<path d="M11.8818 5.71948L6.40138 0.168025C6.18006 -0.0560082 5.81994 -0.0560082 5.59862 0.168025L0.118162 5.71948C-0.0393873 5.87897 -0.0393873 6.13717 0.118162 6.30045C0.193185 6.37639 0.294467 6.41437 0.395749 6.41816H1.10847V11.4304C1.10847 11.7456 1.3598 12 1.67115 12H4.31197C4.62332 12 4.87465 11.7456 4.87465 11.4304V9.97231C4.87465 9.76347 5.04345 9.5926 5.24977 9.5926H6.75023C6.95655 9.5926 7.12535 9.76347 7.12535 9.97231V11.4304C7.12535 11.7456 7.37668 12 7.68803 12H10.2651C10.5764 12 10.8278 11.7456 10.8278 11.4304V6.41437H11.578C11.6868 6.41816 11.7993 6.38399 11.8818 6.29665C12.0394 6.13717 12.0394 5.87897 11.8818 5.71569V5.71948Z" fill="#1E1E1E"/>
</svg>
