<svg width="68" height="68" viewBox="0 0 68 68" fill="none" xmlns="http://www.w3.org/2000/svg">
<mask id="mask0_461_150" style="mask-type:alpha" maskUnits="userSpaceOnUse" x="0" y="0" width="68" height="68">
<rect width="68" height="68" fill="#D9D9D9"/>
</mask>
<g mask="url(#mask0_461_150)">
<path d="M49.7876 47.7865H63.5856C63.8151 47.7865 64 47.9726 64 48.2009V49.4644C64 50.6591 63.0322 51.6268 61.8376 51.6268H47.1956" stroke="#1E1E1E" stroke-width="3" stroke-linecap="round" stroke-linejoin="round"/>
<path d="M49.7876 47.7865H63.5856C63.8151 47.7865 64 47.9726 64 48.2009V49.4644C64 50.6591 63.0322 51.6268 61.8376 51.6268H47.1956" stroke="white" stroke-width="3" stroke-linecap="round" stroke-linejoin="round"/>
<path d="M20.8057 51.628H6.16366C4.96899 51.628 4.00127 50.6603 4 49.4656V48.2021C4 47.9726 4.18487 47.7877 4.41437 47.7877H18.2264" stroke="#1E1E1E" stroke-width="3" stroke-linecap="round" stroke-linejoin="round"/>
<path d="M20.8057 51.628H6.16366C4.96899 51.628 4.00127 50.6603 4 49.4656V48.2021C4 47.9726 4.18487 47.7877 4.41437 47.7877H18.2264" stroke="white" stroke-width="3" stroke-linecap="round" stroke-linejoin="round"/>
<path d="M33.0916 15.3494H34.9097" stroke="#1E1E1E" stroke-linecap="round" stroke-linejoin="round"/>
<path d="M33.0916 15.3494H34.9097" stroke="white" stroke-linecap="round" stroke-linejoin="round"/>
<path d="M9.75781 18.5737H58.2419" stroke="#1E1E1E" stroke-width="3" stroke-linecap="round" stroke-linejoin="round"/>
<path d="M9.75781 18.5737H58.2419" stroke="white" stroke-width="3" stroke-linecap="round" stroke-linejoin="round"/>
<path d="M4.30371 47.8082L9.75813 41.7264V16.3936C9.75813 13.9673 11.7254 12 14.1518 12H53.8486C56.2749 12 58.2423 13.9673 58.2423 16.3936V41.7264L63.6967 47.8082" stroke="#1E1E1E" stroke-width="3" stroke-linecap="round" stroke-linejoin="round"/>
<path d="M4.30371 47.8082L9.75813 41.7264V16.3936C9.75813 13.9673 11.7254 12 14.1518 12H53.8486C56.2749 12 58.2423 13.9673 58.2423 16.3936V41.7264L63.6967 47.8082" stroke="white" stroke-width="3" stroke-linecap="round" stroke-linejoin="round"/>
<path d="M50.781 41.7467H58.2423" stroke="#1E1E1E" stroke-width="3" stroke-linecap="round" stroke-linejoin="round"/>
<path d="M50.781 41.7467H58.2423" stroke="white" stroke-width="3" stroke-linecap="round" stroke-linejoin="round"/>
<path d="M9.75781 41.7467H17.2203" stroke="#1E1E1E" stroke-width="3" stroke-linecap="round" stroke-linejoin="round"/>
<path d="M9.75781 41.7467H17.2203" stroke="white" stroke-width="3" stroke-linecap="round" stroke-linejoin="round"/>
<path d="M11.8796 44.9597H13.0909" stroke="#1E1E1E" stroke-linecap="round" stroke-linejoin="round"/>
<path d="M11.8796 44.9597H13.0909" stroke="white" stroke-linecap="round" stroke-linejoin="round"/>
<path d="M16.1213 44.9597H17.3339" stroke="#1E1E1E" stroke-linecap="round" stroke-linejoin="round"/>
<path d="M16.1213 44.9597H17.3339" stroke="white" stroke-linecap="round" stroke-linejoin="round"/>
<path d="M50.6675 44.9597H51.8787" stroke="#1E1E1E" stroke-linecap="round" stroke-linejoin="round"/>
<path d="M50.6675 44.9597H51.8787" stroke="white" stroke-linecap="round" stroke-linejoin="round"/>
<path d="M54.9092 44.9597H56.1217" stroke="#1E1E1E" stroke-linecap="round" stroke-linejoin="round"/>
<path d="M54.9092 44.9597H56.1217" stroke="white" stroke-linecap="round" stroke-linejoin="round"/>
<path d="M47.4581 28.0317C42.0004 28.0317 35.2114 22.8258 35.1435 22.7737C34.7579 22.4755 34.2183 22.4755 33.8328 22.7737C33.7649 22.8258 26.9868 28.0317 21.5194 28.0317C20.9289 28.0317 20.45 28.5104 20.45 29.1007V42.9996C20.45 46.2262 21.7947 49.1473 24.0476 50.8115C26.0167 52.266 31.512 55.8974 32.5935 56.6113L33.9007 57.4731C34.0789 57.5907 34.285 57.65 34.49 57.65C34.6949 57.65 34.8998 57.5907 35.0792 57.4731L36.3864 56.6113C37.4679 55.8986 42.962 52.2672 44.9323 50.8115C47.1852 49.1473 48.53 46.2274 48.53 42.9996V29.1007C48.53 28.5104 48.051 28.0317 47.4605 28.0317H47.4581ZM41.6706 37.1901L34.188 44.6699C33.988 44.8699 33.7151 44.9826 33.4314 44.9826C33.1477 44.9826 32.8761 44.8699 32.6748 44.6699L28.0974 40.0943C27.6791 39.6761 27.6791 38.9998 28.0974 38.5816C28.5158 38.1634 29.1924 38.1634 29.6107 38.5816L33.4314 42.4009L40.1574 35.6775C40.5757 35.2593 41.2523 35.2593 41.6706 35.6775C42.0889 36.0956 42.0889 36.772 41.6706 37.1901Z" fill="#0B69F6"/>
<path d="M47.4581 28.0317C42.0004 28.0317 35.2114 22.8258 35.1435 22.7737C34.7579 22.4755 34.2183 22.4755 33.8328 22.7737C33.7649 22.8258 26.9868 28.0317 21.5194 28.0317C20.9289 28.0317 20.45 28.5104 20.45 29.1007V42.9996C20.45 46.2262 21.7947 49.1473 24.0476 50.8115C26.0167 52.266 31.512 55.8974 32.5935 56.6113L33.9007 57.4731C34.0789 57.5907 34.285 57.65 34.49 57.65C34.6949 57.65 34.8998 57.5907 35.0792 57.4731L36.3864 56.6113C37.4679 55.8986 42.962 52.2672 44.9323 50.8115C47.1852 49.1473 48.53 46.2274 48.53 42.9996V29.1007C48.53 28.5104 48.051 28.0317 47.4605 28.0317H47.4581ZM41.6706 37.1901L34.188 44.6699C33.988 44.8699 33.7151 44.9826 33.4314 44.9826C33.1477 44.9826 32.8761 44.8699 32.6748 44.6699L28.0974 40.0943C27.6791 39.6761 27.6791 38.9998 28.0974 38.5816C28.5158 38.1634 29.1924 38.1634 29.6107 38.5816L33.4314 42.4009L40.1574 35.6775C40.5757 35.2593 41.2523 35.2593 41.6706 35.6775C42.0889 36.0956 42.0889 36.772 41.6706 37.1901Z" fill="white"/>
</g>
</svg>
