<svg width="68" height="68" viewBox="0 0 68 68" fill="none" xmlns="http://www.w3.org/2000/svg">
<mask id="mask0_464_1625" style="mask-type:alpha" maskUnits="userSpaceOnUse" x="0" y="0" width="68" height="68">
<rect width="68" height="68" fill="#D9D9D9"/>
</mask>
<g mask="url(#mask0_464_1625)">
<path d="M25.233 22H20.767C20.343 22 20 21.7141 20 21.3608V17.6392C20 17.2859 20.343 17 20.767 17H25.233C25.657 17 26 17.2859 26 17.6392V21.3608C26 21.7141 25.657 22 25.233 22ZM21.534 20.7217H24.466V18.2783H21.534V20.7217Z" fill="#1E1E1E"/>
<path d="M25.233 22H20.767C20.343 22 20 21.7141 20 21.3608V17.6392C20 17.2859 20.343 17 20.767 17H25.233C25.657 17 26 17.2859 26 17.6392V21.3608C26 21.7141 25.657 22 25.233 22ZM21.534 20.7217H24.466V18.2783H21.534V20.7217Z" fill="white"/>
<path d="M25.233 22H20.767C20.343 22 20 21.7141 20 21.3608V17.6392C20 17.2859 20.343 17 20.767 17H25.233C25.657 17 26 17.2859 26 17.6392V21.3608C26 21.7141 25.657 22 25.233 22ZM21.534 20.7217H24.466V18.2783H21.534V20.7217Z" stroke="#1E1E1E"/>
<path d="M25.233 22H20.767C20.343 22 20 21.7141 20 21.3608V17.6392C20 17.2859 20.343 17 20.767 17H25.233C25.657 17 26 17.2859 26 17.6392V21.3608C26 21.7141 25.657 22 25.233 22ZM21.534 20.7217H24.466V18.2783H21.534V20.7217Z" stroke="white"/>
<path d="M54.2023 24.6825H52.6304L49.1331 22V20.3321H53.0982C53.5392 20.3321 53.896 19.9686 53.896 19.5194C53.896 19.0701 53.5392 18.7066 53.0982 18.7066H48.3522C48.3522 18.7066 48.3387 18.7066 48.332 18.7066C48.3253 18.7066 48.3185 18.7066 48.3118 18.7066H29.8293V13.5934C29.8293 13.1441 29.4725 12.7806 29.0315 12.7806H25.9281C26.1873 12.3142 26.3387 11.7792 26.3387 11.2031C26.3387 9.43692 24.9284 8 23.1949 8C21.4614 8 20.0511 9.43692 20.0511 11.2031C20.0511 11.7758 20.2026 12.3142 20.4618 12.7806H17.4021C16.9611 12.7806 16.6043 13.1441 16.6043 13.5934V18.7066H11.7977C11.3568 18.7066 11 19.0701 11 19.5194C11 19.9686 11.3568 20.3321 11.7977 20.3321H16.6077V25.4419C16.6077 25.8912 16.9645 26.2547 17.4054 26.2547H18.8932V59.1872C18.8932 59.6365 19.25 60 19.6909 60H26.7494C27.1903 60 27.5471 59.6365 27.5471 59.1872V26.2547H29.0349C29.4758 26.2547 29.8326 25.8912 29.8326 25.4419V20.3321H47.5376V22L44.037 24.6825H42.4651C42.0242 24.6825 41.6674 25.046 41.6674 25.4953V30.4268C41.6674 30.876 42.0242 31.2395 42.4651 31.2395H54.2023C54.6432 31.2395 55 30.876 55 30.4268V25.4953C55 25.046 54.6432 24.6825 54.2023 24.6825ZM21.6499 11.2065C21.6499 10.3389 22.3433 9.62897 23.1983 9.62897C24.0532 9.62897 24.7466 10.3354 24.7466 11.2065C24.7466 12.0776 24.0532 12.784 23.1983 12.784C22.3433 12.784 21.6499 12.0776 21.6499 11.2065ZM20.4887 42.5924L25.9517 37.0265V42.7295L20.4887 48.2955V42.5924ZM20.4887 50.5966L25.9517 45.0307V50.7338L20.4887 56.2997V50.5966ZM25.9517 34.7288L20.4887 40.2947V34.5916L25.9517 29.0257V34.7288ZM20.7075 58.3779L25.9517 53.0349V58.3779H20.7075ZM25.9517 26.728L20.4887 32.2939V26.2581H25.9517V26.728ZM26.7494 24.6326H18.2065V14.413H28.2371V19.5159C28.2371 19.5159 28.2371 19.5228 28.2371 19.5262C28.2371 19.5296 28.2371 19.5331 28.2371 19.5365V24.636H26.7494V24.6326ZM48.332 22.7661L50.7454 24.6859H45.9186L48.332 22.7661ZM53.4012 29.6174H43.2595V26.3115H53.4012V29.6174Z" fill="#1E1E1E"/>
<path d="M54.2023 24.6825H52.6304L49.1331 22V20.3321H53.0982C53.5392 20.3321 53.896 19.9686 53.896 19.5194C53.896 19.0701 53.5392 18.7066 53.0982 18.7066H48.3522C48.3522 18.7066 48.3387 18.7066 48.332 18.7066C48.3253 18.7066 48.3185 18.7066 48.3118 18.7066H29.8293V13.5934C29.8293 13.1441 29.4725 12.7806 29.0315 12.7806H25.9281C26.1873 12.3142 26.3387 11.7792 26.3387 11.2031C26.3387 9.43692 24.9284 8 23.1949 8C21.4614 8 20.0511 9.43692 20.0511 11.2031C20.0511 11.7758 20.2026 12.3142 20.4618 12.7806H17.4021C16.9611 12.7806 16.6043 13.1441 16.6043 13.5934V18.7066H11.7977C11.3568 18.7066 11 19.0701 11 19.5194C11 19.9686 11.3568 20.3321 11.7977 20.3321H16.6077V25.4419C16.6077 25.8912 16.9645 26.2547 17.4054 26.2547H18.8932V59.1872C18.8932 59.6365 19.25 60 19.6909 60H26.7494C27.1903 60 27.5471 59.6365 27.5471 59.1872V26.2547H29.0349C29.4758 26.2547 29.8326 25.8912 29.8326 25.4419V20.3321H47.5376V22L44.037 24.6825H42.4651C42.0242 24.6825 41.6674 25.046 41.6674 25.4953V30.4268C41.6674 30.876 42.0242 31.2395 42.4651 31.2395H54.2023C54.6432 31.2395 55 30.876 55 30.4268V25.4953C55 25.046 54.6432 24.6825 54.2023 24.6825ZM21.6499 11.2065C21.6499 10.3389 22.3433 9.62897 23.1983 9.62897C24.0532 9.62897 24.7466 10.3354 24.7466 11.2065C24.7466 12.0776 24.0532 12.784 23.1983 12.784C22.3433 12.784 21.6499 12.0776 21.6499 11.2065ZM20.4887 42.5924L25.9517 37.0265V42.7295L20.4887 48.2955V42.5924ZM20.4887 50.5966L25.9517 45.0307V50.7338L20.4887 56.2997V50.5966ZM25.9517 34.7288L20.4887 40.2947V34.5916L25.9517 29.0257V34.7288ZM20.7075 58.3779L25.9517 53.0349V58.3779H20.7075ZM25.9517 26.728L20.4887 32.2939V26.2581H25.9517V26.728ZM26.7494 24.6326H18.2065V14.413H28.2371V19.5159C28.2371 19.5159 28.2371 19.5228 28.2371 19.5262C28.2371 19.5296 28.2371 19.5331 28.2371 19.5365V24.636H26.7494V24.6326ZM48.332 22.7661L50.7454 24.6859H45.9186L48.332 22.7661ZM53.4012 29.6174H43.2595V26.3115H53.4012V29.6174Z" fill="white"/>
<path d="M54.2023 24.6825H52.6304L49.1331 22V20.3321H53.0982C53.5392 20.3321 53.896 19.9686 53.896 19.5194C53.896 19.0701 53.5392 18.7066 53.0982 18.7066H48.3522C48.3522 18.7066 48.3387 18.7066 48.332 18.7066C48.3253 18.7066 48.3185 18.7066 48.3118 18.7066H29.8293V13.5934C29.8293 13.1441 29.4725 12.7806 29.0315 12.7806H25.9281C26.1873 12.3142 26.3387 11.7792 26.3387 11.2031C26.3387 9.43692 24.9284 8 23.1949 8C21.4614 8 20.0511 9.43692 20.0511 11.2031C20.0511 11.7758 20.2026 12.3142 20.4618 12.7806H17.4021C16.9611 12.7806 16.6043 13.1441 16.6043 13.5934V18.7066H11.7977C11.3568 18.7066 11 19.0701 11 19.5194C11 19.9686 11.3568 20.3321 11.7977 20.3321H16.6077V25.4419C16.6077 25.8912 16.9645 26.2547 17.4054 26.2547H18.8932V59.1872C18.8932 59.6365 19.25 60 19.6909 60H26.7494C27.1903 60 27.5471 59.6365 27.5471 59.1872V26.2547H29.0349C29.4758 26.2547 29.8326 25.8912 29.8326 25.4419V20.3321H47.5376V22L44.037 24.6825H42.4651C42.0242 24.6825 41.6674 25.046 41.6674 25.4953V30.4268C41.6674 30.876 42.0242 31.2395 42.4651 31.2395H54.2023C54.6432 31.2395 55 30.876 55 30.4268V25.4953C55 25.046 54.6432 24.6825 54.2023 24.6825ZM21.6499 11.2065C21.6499 10.3389 22.3433 9.62897 23.1983 9.62897C24.0532 9.62897 24.7466 10.3354 24.7466 11.2065C24.7466 12.0776 24.0532 12.784 23.1983 12.784C22.3433 12.784 21.6499 12.0776 21.6499 11.2065ZM20.4887 42.5924L25.9517 37.0265V42.7295L20.4887 48.2955V42.5924ZM20.4887 50.5966L25.9517 45.0307V50.7338L20.4887 56.2997V50.5966ZM25.9517 34.7288L20.4887 40.2947V34.5916L25.9517 29.0257V34.7288ZM20.7075 58.3779L25.9517 53.0349V58.3779H20.7075ZM25.9517 26.728L20.4887 32.2939V26.2581H25.9517V26.728ZM26.7494 24.6326H18.2065V14.413H28.2371V19.5159C28.2371 19.5159 28.2371 19.5228 28.2371 19.5262C28.2371 19.5296 28.2371 19.5331 28.2371 19.5365V24.636H26.7494V24.6326ZM48.332 22.7661L50.7454 24.6859H45.9186L48.332 22.7661ZM53.4012 29.6174H43.2595V26.3115H53.4012V29.6174Z" stroke="#1E1E1E"/>
<path d="M54.2023 24.6825H52.6304L49.1331 22V20.3321H53.0982C53.5392 20.3321 53.896 19.9686 53.896 19.5194C53.896 19.0701 53.5392 18.7066 53.0982 18.7066H48.3522C48.3522 18.7066 48.3387 18.7066 48.332 18.7066C48.3253 18.7066 48.3185 18.7066 48.3118 18.7066H29.8293V13.5934C29.8293 13.1441 29.4725 12.7806 29.0315 12.7806H25.9281C26.1873 12.3142 26.3387 11.7792 26.3387 11.2031C26.3387 9.43692 24.9284 8 23.1949 8C21.4614 8 20.0511 9.43692 20.0511 11.2031C20.0511 11.7758 20.2026 12.3142 20.4618 12.7806H17.4021C16.9611 12.7806 16.6043 13.1441 16.6043 13.5934V18.7066H11.7977C11.3568 18.7066 11 19.0701 11 19.5194C11 19.9686 11.3568 20.3321 11.7977 20.3321H16.6077V25.4419C16.6077 25.8912 16.9645 26.2547 17.4054 26.2547H18.8932V59.1872C18.8932 59.6365 19.25 60 19.6909 60H26.7494C27.1903 60 27.5471 59.6365 27.5471 59.1872V26.2547H29.0349C29.4758 26.2547 29.8326 25.8912 29.8326 25.4419V20.3321H47.5376V22L44.037 24.6825H42.4651C42.0242 24.6825 41.6674 25.046 41.6674 25.4953V30.4268C41.6674 30.876 42.0242 31.2395 42.4651 31.2395H54.2023C54.6432 31.2395 55 30.876 55 30.4268V25.4953C55 25.046 54.6432 24.6825 54.2023 24.6825ZM21.6499 11.2065C21.6499 10.3389 22.3433 9.62897 23.1983 9.62897C24.0532 9.62897 24.7466 10.3354 24.7466 11.2065C24.7466 12.0776 24.0532 12.784 23.1983 12.784C22.3433 12.784 21.6499 12.0776 21.6499 11.2065ZM20.4887 42.5924L25.9517 37.0265V42.7295L20.4887 48.2955V42.5924ZM20.4887 50.5966L25.9517 45.0307V50.7338L20.4887 56.2997V50.5966ZM25.9517 34.7288L20.4887 40.2947V34.5916L25.9517 29.0257V34.7288ZM20.7075 58.3779L25.9517 53.0349V58.3779H20.7075ZM25.9517 26.728L20.4887 32.2939V26.2581H25.9517V26.728ZM26.7494 24.6326H18.2065V14.413H28.2371V19.5159C28.2371 19.5159 28.2371 19.5228 28.2371 19.5262C28.2371 19.5296 28.2371 19.5331 28.2371 19.5365V24.636H26.7494V24.6326ZM48.332 22.7661L50.7454 24.6859H45.9186L48.332 22.7661ZM53.4012 29.6174H43.2595V26.3115H53.4012V29.6174Z" stroke="white"/>
<path d="M55.1984 38.2166C51.1168 38.2166 46.0396 34.2121 45.9888 34.172C45.7004 33.9427 45.2969 33.9427 45.0085 34.172C44.9577 34.2121 39.8886 38.2166 35.7998 38.2166C35.3582 38.2166 35 38.5849 35 39.039V49.7305C35 52.2124 36.0057 54.4594 37.6905 55.7396C39.1632 56.8584 43.2729 59.6518 44.0817 60.201L45.0593 60.8639C45.1926 60.9543 45.3467 61 45.5 61C45.6533 61 45.8065 60.9543 45.9407 60.8639L46.9183 60.201C47.7271 59.6527 51.8359 56.8594 53.3095 55.7396C54.9943 54.4594 56 52.2134 56 49.7305V39.039C56 38.5849 55.6418 38.2166 55.2002 38.2166H55.1984ZM50.8702 45.2616L45.2742 51.0153C45.1246 51.1691 44.9205 51.2558 44.7084 51.2558C44.4962 51.2558 44.293 51.1691 44.1425 51.0153L40.7193 47.4956C40.4064 47.1739 40.4064 46.6536 40.7193 46.332C41.0321 46.0103 41.5381 46.0103 41.851 46.332L44.7084 49.2699L49.7384 44.098C50.0513 43.7764 50.5573 43.7764 50.8702 44.098C51.183 44.4197 51.183 44.9399 50.8702 45.2616Z" fill="#0B69F6"/>
<path d="M55.1984 38.2166C51.1168 38.2166 46.0396 34.2121 45.9888 34.172C45.7004 33.9427 45.2969 33.9427 45.0085 34.172C44.9577 34.2121 39.8886 38.2166 35.7998 38.2166C35.3582 38.2166 35 38.5849 35 39.039V49.7305C35 52.2124 36.0057 54.4594 37.6905 55.7396C39.1632 56.8584 43.2729 59.6518 44.0817 60.201L45.0593 60.8639C45.1926 60.9543 45.3467 61 45.5 61C45.6533 61 45.8065 60.9543 45.9407 60.8639L46.9183 60.201C47.7271 59.6527 51.8359 56.8594 53.3095 55.7396C54.9943 54.4594 56 52.2134 56 49.7305V39.039C56 38.5849 55.6418 38.2166 55.2002 38.2166H55.1984ZM50.8702 45.2616L45.2742 51.0153C45.1246 51.1691 44.9205 51.2558 44.7084 51.2558C44.4962 51.2558 44.293 51.1691 44.1425 51.0153L40.7193 47.4956C40.4064 47.1739 40.4064 46.6536 40.7193 46.332C41.0321 46.0103 41.5381 46.0103 41.851 46.332L44.7084 49.2699L49.7384 44.098C50.0513 43.7764 50.5573 43.7764 50.8702 44.098C51.183 44.4197 51.183 44.9399 50.8702 45.2616Z" fill="white"/>
</g>
</svg>
