<svg width="68" height="68" viewBox="0 0 68 68" fill="none" xmlns="http://www.w3.org/2000/svg">
<mask id="mask0_460_5" style="mask-type:alpha" maskUnits="userSpaceOnUse" x="0" y="0" width="68" height="68">
<rect width="68" height="68" fill="#D9D9D9"/>
</mask>
<g mask="url(#mask0_460_5)">
<path d="M33.5255 53.5638C30.8606 53.5638 28.7 51.392 28.7 48.7119C28.7 46.0318 30.8606 43.86 33.5255 43.86C36.1905 43.86 38.35 46.0329 38.35 48.7119C38.35 51.3909 36.1894 53.5638 33.5255 53.5638Z" stroke="white" stroke-width="3" stroke-linecap="round" stroke-linejoin="round"/>
<path d="M26.0276 60.98C26.8541 58.832 28.9275 57.3082 31.3553 57.3082H35.696C38.1238 57.3082 40.1983 58.832 41.0237 60.98" stroke="white" stroke-width="3" stroke-linecap="round" stroke-linejoin="round"/>
<path d="M16.4992 48.5538C13.8342 48.5538 11.6736 46.382 11.6736 43.7019C11.6736 41.0218 13.8342 38.85 16.4992 38.85C19.1641 38.85 21.3237 41.0229 21.3237 43.7019C21.3237 46.3809 19.163 48.5538 16.4992 48.5538Z" stroke="white" stroke-width="3" stroke-linecap="round" stroke-linejoin="round"/>
<path d="M9 56.0663C9.82653 53.9183 11.8999 52.3945 14.3277 52.3945H18.6684C21.0963 52.3945 23.1707 53.9183 23.9961 56.0663" stroke="white" stroke-width="3" stroke-linecap="round" stroke-linejoin="round"/>
<path d="M50.5541 49.0038C47.8891 49.0038 45.7285 46.8319 45.7285 44.1518C45.7285 41.4717 47.8891 39.2999 50.5541 39.2999C53.219 39.2999 55.3786 41.4728 55.3786 44.1518C55.3786 46.8309 53.218 49.0038 50.5541 49.0038Z" stroke="white" stroke-width="3" stroke-linecap="round" stroke-linejoin="round"/>
<path d="M43.0549 56.515C43.8815 54.367 45.9548 52.8433 48.3827 52.8433H52.7233C55.1512 52.8433 57.2256 54.367 58.0511 56.515" stroke="white" stroke-width="3" stroke-linecap="round" stroke-linejoin="round"/>
<path d="M45.6249 13.0522C40.5579 13.0522 34.2549 8.25414 34.1918 8.20611C33.8338 7.9313 33.3329 7.9313 32.9749 8.20611C32.9119 8.25414 26.6189 13.0522 21.543 13.0522C20.9947 13.0522 20.55 13.4934 20.55 14.0375V26.8474C20.55 29.8212 21.7985 32.5134 23.8901 34.0472C25.7183 35.3878 30.8202 38.7346 31.8244 39.3926L33.0379 40.1869C33.2034 40.2953 33.3948 40.35 33.585 40.35C33.7753 40.35 33.9656 40.2953 34.1322 40.1869L35.3457 39.3926C36.3499 38.7358 41.4506 35.3889 43.28 34.0472C45.3716 32.5134 46.62 29.8223 46.62 26.8474V14.0375C46.62 13.4934 46.1754 13.0522 45.6271 13.0522H45.6249ZM40.2517 21.4931L33.3047 28.3868C33.119 28.5711 32.8657 28.675 32.6023 28.675C32.3388 28.675 32.0867 28.5711 31.8998 28.3868L27.6501 24.1697C27.2617 23.7843 27.2617 23.1609 27.6501 22.7755C28.0385 22.3901 28.6667 22.3901 29.0551 22.7755L32.6023 26.2956L38.8468 20.0989C39.2352 19.7135 39.8633 19.7135 40.2517 20.0989C40.6401 20.4843 40.6401 21.1077 40.2517 21.4931Z" fill="white"/>
</g>
</svg>
