<svg width="68" height="68" viewBox="0 0 68 68" fill="none" xmlns="http://www.w3.org/2000/svg">
<mask id="mask0_464_261" style="mask-type:alpha" maskUnits="userSpaceOnUse" x="0" y="0" width="68" height="68">
<rect width="68" height="68" fill="#D9D9D9"/>
</mask>
<g mask="url(#mask0_464_261)">
<path d="M5 48C5 51.5783 7.68613 54 11 54C14.3139 54 17 51.5783 17 48H5Z" stroke="#1E1E1E" stroke-width="3" stroke-linecap="round" stroke-linejoin="round"/>
<path d="M5 48C5 51.5783 7.68613 54 11 54C14.3139 54 17 51.5783 17 48H5Z" stroke="white" stroke-width="3" stroke-linecap="round" stroke-linejoin="round"/>
<path d="M15 48L10.5006 39L6 48" stroke="#1E1E1E" stroke-width="3" stroke-linecap="round" stroke-linejoin="round"/>
<path d="M15 48L10.5006 39L6 48" stroke="white" stroke-width="3" stroke-linecap="round" stroke-linejoin="round"/>
<path d="M23 55V32" stroke="#1E1E1E" stroke-width="3" stroke-linecap="round" stroke-linejoin="round"/>
<path d="M23 55V32" stroke="white" stroke-width="3" stroke-linecap="round" stroke-linejoin="round"/>
<path d="M8 38.2127C14.185 41.8287 16.5692 31.5462 23 36.2623" stroke="#1E1E1E" stroke-width="3" stroke-linecap="round" stroke-linejoin="round"/>
<path d="M8 38.2127C14.185 41.8287 16.5692 31.5462 23 36.2623" stroke="white" stroke-width="3" stroke-linecap="round" stroke-linejoin="round"/>
<path d="M40 48C40 51.5783 37.3139 54 34 54C30.6861 54 28 51.5783 28 48H39.9988H40Z" stroke="#1E1E1E" stroke-width="3" stroke-linecap="round" stroke-linejoin="round"/>
<path d="M40 48C40 51.5783 37.3139 54 34 54C30.6861 54 28 51.5783 28 48H39.9988H40Z" stroke="white" stroke-width="3" stroke-linecap="round" stroke-linejoin="round"/>
<path d="M30 48L34.4994 39L39 48" stroke="#1E1E1E" stroke-width="3" stroke-linecap="round" stroke-linejoin="round"/>
<path d="M30 48L34.4994 39L39 48" stroke="white" stroke-width="3" stroke-linecap="round" stroke-linejoin="round"/>
<path d="M37 38.2127C31.2268 41.8287 29.0026 31.5462 23 36.2623" stroke="#1E1E1E" stroke-width="3" stroke-linecap="round" stroke-linejoin="round"/>
<path d="M37 38.2127C31.2268 41.8287 29.0026 31.5462 23 36.2623" stroke="white" stroke-width="3" stroke-linecap="round" stroke-linejoin="round"/>
<path d="M16 58.0732V59H29V58.0732C29 56.3757 27.7717 55 26.256 55H18.744C17.2283 55 16 56.3757 16 58.0732Z" stroke="#1E1E1E" stroke-width="3" stroke-linecap="round" stroke-linejoin="round"/>
<path d="M16 58.0732V59H29V58.0732C29 56.3757 27.7717 55 26.256 55H18.744C17.2283 55 16 56.3757 16 58.0732Z" stroke="white" stroke-width="3" stroke-linecap="round" stroke-linejoin="round"/>
<path d="M38.5006 59C38.3164 59 38.1311 58.9468 37.9705 58.8404L37.5045 58.5314C37.2069 58.3333 37.0419 57.987 37.0755 57.6293C37.1092 57.2717 37.3361 56.9627 37.6662 56.8246C38.7308 56.3809 39.6909 55.7686 40.5174 55.0069C42.4432 53.2322 43.5044 50.7998 43.5044 48.1559C43.5044 46.44 42.5129 44.843 40.9789 44.0858C40.7891 43.9918 40.6353 43.839 40.541 43.6489L39.7583 42.0734C39.6145 41.7848 39.6235 41.4418 39.7818 41.1611C40.0076 40.7604 40.1715 40.3236 40.2681 39.8652C40.5185 38.6824 40.2962 37.4725 39.6437 36.4572C38.4512 34.6032 36.0436 33.8857 34.0436 34.7866C33.7258 34.9303 33.3563 34.8885 33.0767 34.6802C32.8218 34.4901 32.5658 34.2875 32.4277 34.1788C31.1598 33.1783 29.727 32.0464 27.718 31.5292C27.5877 31.4952 27.4541 31.4647 27.3216 31.4375C27.0588 31.3843 26.8309 31.2224 26.6916 30.9927C25.8663 29.6311 24.4323 28.8173 22.8556 28.8173C21.6428 28.8173 20.5042 29.3017 19.6496 30.1812C19.3756 30.463 18.9601 30.549 18.5985 30.4007C18.2369 30.2513 18 29.8971 18 29.5021V16.2969C18 15.7616 18.4312 15.3269 18.9624 15.3269C27.4215 15.3269 37.8066 7.28522 37.911 7.20373C38.258 6.93209 38.7431 6.93209 39.0912 7.20373C39.2069 7.29315 49.5964 15.3269 58.0376 15.3269C58.5688 15.3269 59 15.7616 59 16.2969V37.4057C59 42.1005 57.073 46.3393 53.8445 48.7444C50.8216 50.9956 41.9941 56.8721 40.9969 57.5343L40.9845 57.5433L39.0317 58.8404C38.8711 58.9468 38.687 59 38.5017 59H38.5006Z" fill="#0B69F7"/>
<path d="M38.5006 59C38.3164 59 38.1311 58.9468 37.9705 58.8404L37.5045 58.5314C37.2069 58.3333 37.0419 57.987 37.0755 57.6293C37.1092 57.2717 37.3361 56.9627 37.6662 56.8246C38.7308 56.3809 39.6909 55.7686 40.5174 55.0069C42.4432 53.2322 43.5044 50.7998 43.5044 48.1559C43.5044 46.44 42.5129 44.843 40.9789 44.0858C40.7891 43.9918 40.6353 43.839 40.541 43.6489L39.7583 42.0734C39.6145 41.7848 39.6235 41.4418 39.7818 41.1611C40.0076 40.7604 40.1715 40.3236 40.2681 39.8652C40.5185 38.6824 40.2962 37.4725 39.6437 36.4572C38.4512 34.6032 36.0436 33.8857 34.0436 34.7866C33.7258 34.9303 33.3563 34.8885 33.0767 34.6802C32.8218 34.4901 32.5658 34.2875 32.4277 34.1788C31.1598 33.1783 29.727 32.0464 27.718 31.5292C27.5877 31.4952 27.4541 31.4647 27.3216 31.4375C27.0588 31.3843 26.8309 31.2224 26.6916 30.9927C25.8663 29.6311 24.4323 28.8173 22.8556 28.8173C21.6428 28.8173 20.5042 29.3017 19.6496 30.1812C19.3756 30.463 18.9601 30.549 18.5985 30.4007C18.2369 30.2513 18 29.8971 18 29.5021V16.2969C18 15.7616 18.4312 15.3269 18.9624 15.3269C27.4215 15.3269 37.8066 7.28522 37.911 7.20373C38.258 6.93209 38.7431 6.93209 39.0912 7.20373C39.2069 7.29315 49.5964 15.3269 58.0376 15.3269C58.5688 15.3269 59 15.7616 59 16.2969V37.4057C59 42.1005 57.073 46.3393 53.8445 48.7444C50.8216 50.9956 41.9941 56.8721 40.9969 57.5343L40.9845 57.5433L39.0317 58.8404C38.8711 58.9468 38.687 59 38.5017 59H38.5006Z" fill="white"/>
</g>
</svg>
