<svg width="46" height="46" viewBox="0 0 46 46" fill="none" xmlns="http://www.w3.org/2000/svg">
<mask id="mask0_12_183" style="mask-type:alpha" maskUnits="userSpaceOnUse" x="0" y="0" width="46" height="46">
<rect width="46" height="46" rx="8" fill="#D9D9D9"/>
</mask>
<g mask="url(#mask0_12_183)">
<path d="M11.204 9.50365C11.3714 9.40901 11.6255 9.32651 12.0142 9.32651C12.1634 9.32651 12.3961 9.41532 12.7044 9.62116C13.003 9.82047 13.3375 10.1054 13.6815 10.4411C14.369 11.1119 15.0716 11.963 15.5691 12.6729L15.5691 12.6729L15.5713 12.676C15.809 13.0044 16.2875 13.1026 16.6288 12.8532C16.9553 12.6146 17.052 12.1363 16.8059 11.795C16.5718 11.4677 15.8556 10.4803 14.9704 9.56765C14.5281 9.11155 14.0374 8.66769 13.5381 8.33364C13.0432 8.00254 12.5141 7.76181 11.9997 7.75007L11.9997 7.75H11.994C10.9463 7.75 10.2986 8.12766 9.91415 8.53726C9.72487 8.7389 9.60403 8.94323 9.53001 9.10325C9.49298 9.18329 9.4672 9.25323 9.45023 9.30762C9.44178 9.3347 9.43517 9.35902 9.4304 9.3797L9.43016 9.38074C9.42871 9.38698 9.42573 9.39984 9.42327 9.41589C9.34728 9.7283 9.47903 10.0715 9.7649 10.2358C9.77366 10.2428 9.78237 10.2493 9.78842 10.2538C9.79468 10.2585 9.80086 10.263 9.80724 10.2677C9.82108 10.2779 9.83588 10.2887 9.85459 10.303C9.9064 10.3425 9.97528 10.3984 10.0481 10.4715C10.1947 10.6189 10.3502 10.829 10.4168 11.1053L10.4168 11.1053L10.4173 11.1071C10.5356 11.5828 10.4099 12.1814 9.94308 12.9242C9.25115 14.0167 8.6502 14.5392 8.24057 14.7889C8.03577 14.9138 7.8773 14.9714 7.77665 14.9981C7.72618 15.0115 7.68975 15.0172 7.66875 15.0197C7.65823 15.0209 7.65153 15.0213 7.64881 15.0215C7.64849 15.0215 7.64822 15.0215 7.64801 15.0215H7.64796H7.64785H7.64773H7.64761H7.64749H7.64736H7.64724H7.64712H7.647H7.64688H7.64675H7.64663H7.64651H7.64638H7.64626H7.64613H7.64601H7.64588H7.64575H7.64563H7.6455H7.64537H7.64524H7.64511H7.64498H7.64486H7.64473H7.6446H7.64447H7.64433H7.6442H7.64407H7.64394H7.64381H7.64367H7.64354H7.64341H7.64327H7.64314H7.643H7.64287H7.64273H7.6426H7.64246H7.64233H7.64219H7.64205H7.64192H7.64178H7.64164H7.6415H7.64136H7.64122H7.64108H7.64094H7.6408H7.64066H7.64052H7.64038H7.64024H7.6401H7.63996H7.63982H7.63967H7.63953H7.63939H7.63925H7.6391H7.63896H7.63881H7.63867H7.63853H7.63838H7.63824H7.63809H7.63794H7.6378H7.63765H7.63751H7.63736H7.63721H7.63707H7.63692H7.63677H7.63662H7.63647H7.63633H7.63618H7.63603H7.63588H7.63573H7.63558H7.63543H7.63528H7.63513H7.63498H7.63483H7.63468H7.63453H7.63438H7.63423H7.63408H7.63392H7.63377H7.63362H7.63347H7.63332H7.63316H7.63301H7.63286H7.6327H7.63255H7.6324H7.63224H7.63209H7.63194H7.63178H7.63163H7.63147H7.63132H7.63117H7.63101H7.63086H7.6307H7.63055H7.63039H7.63024H7.63008H7.62993H7.62977H7.62961H7.62946H7.6293H7.62915H7.62899H7.62883H7.62868H7.62852H7.62836H7.62821H7.62805H7.62789H7.62774H7.62758H7.62742H7.62727H7.62711H7.62695H7.6268H7.62664H7.62648H7.62632H7.62617H7.62601H7.62585H7.62569H7.62554H7.62538H7.62522H7.62506H7.6249H7.62475H7.62459H7.62443H7.62427H7.62412H7.62396H7.6238H7.62364H7.62348H7.62333H7.62317H7.62301H7.62285H7.62269H7.62254H7.62238H7.62222H7.62206H7.6219H7.62175H7.62159H7.62143H7.62127H7.62112H7.62096H7.6208H7.62064H7.62049H7.62033H7.62017H7.62001H7.61986H7.6197H7.61954H7.61939H7.61923H7.61907H7.61891H7.61876H7.6186H7.61844H7.61829H7.61813H7.61797H7.61782H7.61766H7.61751H7.61735H7.61719H7.61704H7.61688H7.61673H7.61657H7.61642H7.61626H7.61611H7.61595H7.6158H7.61564H7.61549H7.61533H7.61518H7.61502H7.61487H7.61472H7.61456H7.61441H7.61426H7.6141H7.61395H7.6138H7.61364H7.61349H7.61334H7.61319H7.61303H7.61288H7.61273H7.61258H7.61243H7.61228H7.61213H7.61198H7.61183H7.61168H7.61152H7.61137H7.61123H7.61108H7.61093H7.61078H7.61063H7.61048H7.61033H7.61018H7.61004H7.60989H7.60974H7.60959H7.60945H7.6093H7.60915H7.60901H7.60886H7.60871H7.60857H7.60842H7.60828H7.60813H7.60799H7.60785H7.6077H7.60756H7.60742H7.60727H7.60713H7.60699H7.60684H7.6067H7.60656H7.60642H7.60628H7.60614H7.606H7.60586H7.60572H7.60558H7.60544H7.6053H7.60516H7.60502H7.60489H7.60475H7.60461H7.60448H7.60434H7.6042H7.60407H7.60393H7.6038H7.60366H7.60353H7.60339H7.60326H7.60313H7.60299H7.60286H7.60273H7.6026H7.60247H7.60233H7.6022H7.60207H7.60194H7.60181H7.60169H7.60156H7.60143H7.6013H7.60117H7.60105H7.60092H7.60079H7.60067H7.60054H7.60042H7.60029H7.60017H7.60004H7.59992H7.5998H7.59968H7.59955H7.59943H7.59931H7.59919H7.59907H7.59895H7.59883H7.59871H7.59859H7.59848H7.59836H7.59824H7.59813H7.59801H7.59789H7.59778H7.59766H7.59755H7.59744H7.59732H7.59721H7.5971H7.59699H7.59688H7.59677H7.59666H7.59655H7.59644H7.59633H7.59622H7.59611H7.59601H7.5959H7.59579H7.59569H7.59558H7.59548H7.59537H7.59527H7.59517H7.59507H7.59496H7.59486H7.59476H7.59466H7.59456H7.59447H7.59437H7.59427H7.59417H7.59408H7.59398H7.59388H7.59379H7.5937H7.5936H7.59351H7.59342H7.59332H7.59323H7.59314H7.59305H7.59296H7.59287H7.59279H7.5927H7.59261H7.59253H7.59244H7.59236H7.59227H7.59219H7.5921H7.59202H7.59194H7.59186H7.59178H7.5917H7.59162H7.59154H7.59146H7.59138H7.59131H7.59123H7.59116H7.59108H7.59101H7.59093H7.59086H7.59079H7.59072H7.59065H7.59058H7.59051H7.59044H7.59037H7.59031H7.59024H7.59017H7.59011H7.59004H7.58998H7.58992H7.58986H7.58979H7.58973H7.58967H7.58961H7.58956H7.5895H7.58944H7.58938H7.58933H7.58927H7.58922H7.58917H7.58911H7.58906H7.58901H7.58896H7.58891H7.58886H7.58881H7.58877H7.58872H7.58868H7.58863H7.58859H7.58854H7.5885H7.58846H7.58842H7.58838H7.58834H7.5883H7.58826H7.58823H7.58819H7.58815H7.58812H7.58809H7.58805H7.58802H7.58799H7.58796H7.58793H7.5879H7.58787H7.58785H7.58782H7.5878H7.58777H7.58775H7.58773H7.5877H7.58768H7.58766H7.58764H7.58762H7.58761H7.58759H7.58757H7.58756H7.58755H7.58753H7.58752H7.58751H7.5875H7.58749H7.58748H7.58747H7.58747H7.58746H7.58745H7.58745H7.58744H5.56611C5.16405 15.0215 4.87166 15.3306 4.81414 15.6774L4.81077 15.6978V15.7183C4.81077 15.7157 4.81074 15.7161 4.81024 15.7224C4.80977 15.7282 4.80892 15.739 4.80732 15.757C4.80643 15.767 4.80538 15.7787 4.8042 15.7918C4.8019 15.8172 4.79913 15.8479 4.79619 15.8817C4.78716 15.986 4.77579 16.1291 4.7666 16.3014C4.74823 16.6455 4.73845 17.1075 4.77347 17.6119C4.84245 18.6055 5.08893 19.8272 5.85254 20.6057L5.85381 20.607C6.43263 21.1886 8.07912 22.5298 9.7034 23.8203C11.2502 25.0493 12.7946 26.2462 13.4248 26.7309L13.543 31.3414C13.5449 31.7473 13.884 32.0753 14.2983 32.0753H17.1497L17.1902 32.0956H17.2494C17.5187 32.0956 17.7336 31.9698 17.8777 31.767L17.8779 31.7672L17.8836 31.7583L19.5562 29.18C20.6305 29.5376 21.8665 29.7618 23.2794 29.8204C23.704 29.8486 24.0688 29.5128 24.0688 29.0833C24.0688 28.6911 23.7843 28.3093 23.3409 28.3052C21.8248 28.2246 20.5457 27.9844 19.533 27.5544C19.1884 27.399 18.8221 27.5345 18.6209 27.8232L18.6209 27.8232L18.6168 27.8293L16.8312 30.5597H15.0683L14.9728 26.3177C14.9716 26.0838 14.842 25.878 14.6811 25.7433L14.6588 25.7247L14.6478 25.7191L14.642 25.715C14.6288 25.7053 14.6093 25.6908 14.5836 25.6715C14.5323 25.633 14.4587 25.5772 14.3655 25.5059C14.1791 25.3635 13.9156 25.1606 13.5977 24.9144C12.9618 24.422 12.1091 23.7567 11.2217 23.0552C9.43916 21.6462 7.53915 20.1089 6.95611 19.523C6.65052 19.216 6.46315 18.674 6.36651 18.049C6.2866 17.5322 6.27366 16.9927 6.28918 16.5574H7.57912C7.985 16.5827 9.53061 16.4424 11.2347 13.7603L11.2347 13.7604L11.2365 13.7575C11.884 12.7082 12.1378 11.6825 11.8924 10.7404C11.7525 10.1961 11.4755 9.79095 11.204 9.50365Z" fill="#1E1E1E" stroke="#1E1E1E" stroke-width="0.5"/>
<path d="M36.2023 18.8313L36.2019 18.8387V18.8462C36.2019 19.2138 36.4838 19.6243 36.937 19.6243H36.9371H36.9372H36.9373H36.9374H36.9376H36.9377H36.9378H36.9379H36.938H36.9381H36.9383H36.9384H36.9385H36.9386H36.9387H36.9388H36.9389H36.939H36.9391H36.9393H36.9394H36.9395H36.9396H36.9397H36.9398H36.9399H36.94H36.9401H36.9402H36.9403H36.9404H36.9405H36.9406H36.9407H36.9408H36.9409H36.941H36.9412H36.9413H36.9414H36.9415H36.9416H36.9417H36.9418H36.9419H36.9419H36.942H36.9421H36.9422H36.9423H36.9424H36.9425H36.9426H36.9427H36.9428H36.9429H36.943H36.9431H36.9432H36.9433H36.9434H36.9435H36.9436H36.9436H36.9437H36.9438H36.9439H36.944H36.9441H36.9442H36.9443H36.9444H36.9444H36.9445H36.9446H36.9447H36.9448H36.9449H36.945H36.945H36.9451H36.9452H36.9453H36.9454H36.9455H36.9455H36.9456H36.9457H36.9458H36.9459H36.946H36.946H36.9461H36.9462H36.9463H36.9463H36.9464H36.9465H36.9466H36.9467H36.9467H36.9468H36.9469H36.947H36.947H36.9471H36.9472H36.9473H36.9473H36.9474H36.9475H36.9475H36.9476H36.9477H36.9478H36.9478H36.9479H36.948H36.948H36.9481H36.9482H36.9483H36.9483H36.9484H36.9485H36.9485H36.9486H36.9487H36.9487H36.9488H36.9489H36.9489H36.949H36.9491H36.9491H36.9492H36.9492H36.9493H36.9494H36.9494H36.9495H36.9496H36.9496H36.9497H36.9497H36.9498H36.9499H36.9499H36.95H36.95H36.9501H36.9502H36.9502H36.9503H36.9503H36.9504H36.9505H36.9505H36.9506H36.9506H36.9507H36.9507H36.9508H36.9508H36.9509H36.951H36.951H36.9511H36.9511H36.9512H36.9512H36.9513H36.9513H36.9514H36.9514H36.9515H36.9515H36.9516H36.9516H36.9517H36.9517H36.9518H36.9518H36.9519H36.9519H36.952H36.952H36.9521H36.9521H36.9522H36.9522H36.9523H36.9523H36.9523H36.9524H36.9524H36.9525H36.9525H36.9526H36.9526H36.9527H36.9527H36.9527H36.9528H36.9528H36.9529H36.9529H36.953H36.953H36.953H36.9531H36.9531H36.9532H36.9532H36.9532H36.9533H36.9533H36.9534H36.9534H36.9534H36.9535H36.9535H36.9536H36.9536H36.9536H36.9537H36.9537H36.9537H36.9538H36.9538H36.9538H36.9539H36.9539H36.954H36.954H36.954H36.9541H36.9541H36.9541H36.9542H36.9542H36.9542H36.9543H36.9543H36.9543H36.9544H36.9544H36.9544H36.9545H36.9545H36.9545H36.9545H36.9546H36.9546H36.9546H36.9547H36.9547H36.9547H36.9548H36.9548H36.9548H36.9548H36.9549H36.9549H36.9549H36.9549H36.955H36.955H36.955H36.9551H36.9551H36.9551H36.9551H36.9552H36.9552H36.9552H36.9552H36.9553H36.9553H36.9553H36.9553H36.9554H36.9554H36.9554H36.9554H36.9555H36.9555H36.9555H36.9555H36.9555H36.9556H36.9556H36.9556H36.9556H36.9557H36.9557H36.9557H36.9557H36.9557H36.9558H36.9558H36.9558H36.9558H36.9558H36.9559H36.9559H36.9559H36.9559H36.9559H36.9559H36.956H36.956H36.956H36.956H36.956H36.9561H36.9561H36.9561H36.9561H36.9561H36.9561H36.9562H36.9562H36.9562H36.9562H36.9562H36.9562H36.9563H36.9563H36.9563H36.9563H36.9563H36.9563H36.9564H36.9564H36.9564H36.9564H36.9565H36.9565H36.9565H36.9565H36.9566H36.9566H36.9566H36.9566H36.9567H36.9567H36.9567H36.9567H36.9567H36.9568H36.9568H36.9568H36.9568H36.9568H36.9568H36.9569H36.9569H36.9569H36.9569H36.9569H36.957H36.957H36.957H36.957H36.957H36.957H36.9571H36.9571H36.9571H36.9571H36.9571H36.9571H36.9571H36.9572H36.9572H36.9572C37.3436 19.6243 37.7082 19.3046 37.7125 18.8942C37.815 16.9552 37.3364 15.0616 36.305 13.2583L36.305 13.2583C33.569 8.47833 28.8663 7.54442 24.8892 7.79613C20.9845 8.04324 17.7176 9.43286 17.5281 9.51997L17.528 9.51991C17.1531 9.6938 16.9588 10.1197 17.1433 10.5213C17.3152 10.8958 17.7381 11.0933 18.1393 10.9094C18.2626 10.8563 21.2783 9.56401 24.8641 9.31568C28.4869 9.0648 32.625 9.87974 35.0018 14.0347L35.002 14.035C35.8901 15.5818 36.3001 17.1993 36.2023 18.8313Z" fill="#1E1E1E" stroke="#1E1E1E" stroke-width="0.5"/>
<path d="M32.5914 38.0203C32.5914 38.0203 32.4297 38.0203 32.369 37.9594C24.8294 34.2424 24.2028 30.5254 24.1826 30.3629C24.1826 30.3426 24.1826 30.3223 24.1826 30.2816V21.3852C24.1826 21.1009 24.405 20.8775 24.688 20.8775C28.0232 20.8775 32.2478 17.4448 32.2882 17.4245C32.4701 17.2823 32.7329 17.2823 32.935 17.4245C32.9754 17.4651 37.2 20.8775 40.5352 20.8775C40.8182 20.8775 41.0406 21.1009 41.0406 21.3852V30.2816C41.0406 30.2816 41.0406 30.3223 41.0406 30.3629C41.0203 30.5254 40.3735 34.2424 32.8339 37.9594C32.7733 38 32.6924 38.0203 32.6116 38.0203H32.5914Z" fill="#0B69F6"/>
</g>
</svg>
