<svg width="18" height="20" viewBox="0 0 18 20" fill="none" xmlns="http://www.w3.org/2000/svg">
<mask id="mask0_431_569" style="mask-type:alpha" maskUnits="userSpaceOnUse" x="0" y="0" width="18" height="20">
<rect width="18" height="20" fill="#0B6CFF"/>
</mask>
<g mask="url(#mask0_431_569)">
<path fill-rule="evenodd" clip-rule="evenodd" d="M5 0C5.55228 0 6 0.447715 6 1V2H12V1C12 0.447715 12.4477 0 13 0C13.5523 0 14 0.447715 14 1V2H15C16.6569 2 18 3.34315 18 5V6.81275V8.81275V17C18 18.6569 16.6569 20 15 20H3C1.34315 20 0 18.6569 0 17V8.81275V6.81275V5C0 3.34315 1.34315 2 3 2H4V1C4 0.447715 4.44772 0 5 0ZM2 8.81275V17C2 17.5523 2.44772 18 3 18H15C15.5523 18 16 17.5523 16 17V8.81275H2ZM16 6.81275H2V5C2 4.44772 2.44772 4 3 4H4V4.5C4 5.05228 4.44772 5.5 5 5.5C5.55228 5.5 6 5.05228 6 4.5V4H12V4.5C12 5.05228 12.4477 5.5 13 5.5C13.5523 5.5 14 5.05228 14 4.5V4H15C15.5523 4 16 4.44772 16 5V6.81275ZM13.896 9.84289C14.2865 10.2334 14.2865 10.8666 13.896 11.2571L9.002 16.1511C8.61167 16.5414 7.97889 16.5417 7.58829 16.1516L4.68506 13.2525C4.29426 12.8623 4.29381 12.2291 4.68405 11.8383C5.0743 11.4475 5.70746 11.4471 6.09826 11.8373L8.29438 14.0303L12.4818 9.84289C12.8723 9.45237 13.5055 9.45237 13.896 9.84289Z" fill="#1E1E1E"/>
</g>
</svg>
