<svg width="18" height="19" viewBox="0 0 18 19" fill="none" xmlns="http://www.w3.org/2000/svg">
<mask id="mask0_3_477" style="mask-type:alpha" maskUnits="userSpaceOnUse" x="0" y="0" width="18" height="19">
<path d="M18 0.959961H0V18.96H18V0.959961Z" fill="#39C6F4"/>
</mask>
<g mask="url(#mask0_3_477)">
<path d="M17.3101 17.1326L12.8363 12.7624C13.9734 11.3377 14.5685 9.45945 14.2869 7.43709C13.8565 4.38489 11.3858 1.94099 8.34128 1.5568C3.8356 0.985844 0.0365982 4.8011 0.594494 9.32605C0.971738 12.3782 3.3946 14.8542 6.42318 15.2971C8.42098 15.5905 10.2806 15.0089 11.6993 13.8883L16.1784 18.2639C16.4919 18.5787 16.9966 18.5787 17.3048 18.2639C17.6183 17.9491 17.6183 17.4421 17.3048 17.1326H17.3101ZM2.13535 8.43493C2.13535 5.48945 4.52102 3.09891 7.44864 3.09891C10.3763 3.09891 12.7619 5.49478 12.7619 8.43493C12.7619 11.3751 10.3763 13.771 7.44864 13.771C4.52102 13.771 2.13535 11.3751 2.13535 8.43493Z" fill="white"/>
</g>
</svg>
