<svg width="68" height="68" viewBox="0 0 68 68" fill="none" xmlns="http://www.w3.org/2000/svg">
<mask id="mask0_464_1618" style="mask-type:alpha" maskUnits="userSpaceOnUse" x="0" y="0" width="68" height="68">
<rect width="68" height="68" fill="#D9D9D9"/>
</mask>
<g mask="url(#mask0_464_1618)">
<path d="M33.8828 22.6735C34.3443 22.6735 34.7177 22.2918 34.7177 21.8201C34.7177 21.5644 34.6085 21.334 34.4359 21.1791C34.0836 20.7362 33.9075 20.1349 33.9075 19.3859C33.9075 13.7902 31.6424 10.2757 27.5172 9.44034L26.9254 8.4177C26.7739 8.15844 26.5026 8 26.2067 8H23.3744C23.0785 8 22.8037 8.16204 22.6558 8.4213L22.0886 9.41154C17.3646 10.0813 15.6737 15.1477 15.6737 19.3895C15.6737 20.1781 15.4764 20.8083 15.0854 21.2548C14.8176 21.5644 14.8 22.0253 15.0501 22.3494C15.2122 22.5619 15.4588 22.6771 15.7089 22.6771C15.7793 22.6771 15.8463 22.6663 15.9132 22.6483C15.6807 23.4837 15.5574 24.3551 15.5574 25.2301C15.5574 26.7209 15.8885 28.1504 16.5403 29.4719C18.1149 32.6803 21.2749 34.6716 24.7871 34.6716C28.2993 34.6716 31.4592 32.6803 33.0409 29.4719C33.6926 28.1468 34.0238 26.7209 34.0238 25.2301C34.0238 24.3515 33.9005 23.4837 33.668 22.6483C33.7349 22.6663 33.8053 22.6771 33.8723 22.6771C33.8758 22.6771 33.8793 22.6771 33.8828 22.6771V22.6735ZM17.3399 19.3859C17.3399 18.1472 17.5654 12.2526 21.7857 11.2048V13.2897C21.7857 13.7614 22.1591 14.1431 22.6206 14.1431C23.082 14.1431 23.4555 13.7614 23.4555 13.2897V10.3946L23.85 9.70321H25.7276L26.1574 10.445V13.2897C26.1574 13.7614 26.5308 14.1431 26.9923 14.1431C27.4538 14.1431 27.8272 13.7614 27.8272 13.2897V11.284C30.7511 12.177 32.2377 14.892 32.2377 19.3895C32.2377 19.6812 32.2588 19.9549 32.2941 20.2069C30.1698 19.4795 27.644 19.1086 24.7941 19.1086C21.9442 19.1086 19.3972 19.4795 17.2836 20.2105C17.3188 19.9585 17.3399 19.6848 17.3399 19.3895V19.3859ZM31.5472 28.7013C30.2509 31.33 27.6581 32.9612 24.7835 32.9612C21.909 32.9612 19.3162 31.33 18.0269 28.7013C17.4914 27.6175 17.2202 26.4472 17.2202 25.2265C17.2202 24.0058 17.5125 22.8247 18.041 21.7517C19.9362 21.1287 22.2013 20.8119 24.7871 20.8119C27.3728 20.8119 29.6168 21.1287 31.5191 21.7481C32.0545 22.8175 32.3469 24.0094 32.3469 25.2265C32.3469 26.4436 32.0757 27.6175 31.5437 28.7013H31.5472Z" fill="#1E1E1E"/>
<path d="M33.8828 22.6735C34.3443 22.6735 34.7177 22.2918 34.7177 21.8201C34.7177 21.5644 34.6085 21.334 34.4359 21.1791C34.0836 20.7362 33.9075 20.1349 33.9075 19.3859C33.9075 13.7902 31.6424 10.2757 27.5172 9.44034L26.9254 8.4177C26.7739 8.15844 26.5026 8 26.2067 8H23.3744C23.0785 8 22.8037 8.16204 22.6558 8.4213L22.0886 9.41154C17.3646 10.0813 15.6737 15.1477 15.6737 19.3895C15.6737 20.1781 15.4764 20.8083 15.0854 21.2548C14.8176 21.5644 14.8 22.0253 15.0501 22.3494C15.2122 22.5619 15.4588 22.6771 15.7089 22.6771C15.7793 22.6771 15.8463 22.6663 15.9132 22.6483C15.6807 23.4837 15.5574 24.3551 15.5574 25.2301C15.5574 26.7209 15.8885 28.1504 16.5403 29.4719C18.1149 32.6803 21.2749 34.6716 24.7871 34.6716C28.2993 34.6716 31.4592 32.6803 33.0409 29.4719C33.6926 28.1468 34.0238 26.7209 34.0238 25.2301C34.0238 24.3515 33.9005 23.4837 33.668 22.6483C33.7349 22.6663 33.8053 22.6771 33.8723 22.6771C33.8758 22.6771 33.8793 22.6771 33.8828 22.6771V22.6735ZM17.3399 19.3859C17.3399 18.1472 17.5654 12.2526 21.7857 11.2048V13.2897C21.7857 13.7614 22.1591 14.1431 22.6206 14.1431C23.082 14.1431 23.4555 13.7614 23.4555 13.2897V10.3946L23.85 9.70321H25.7276L26.1574 10.445V13.2897C26.1574 13.7614 26.5308 14.1431 26.9923 14.1431C27.4538 14.1431 27.8272 13.7614 27.8272 13.2897V11.284C30.7511 12.177 32.2377 14.892 32.2377 19.3895C32.2377 19.6812 32.2588 19.9549 32.2941 20.2069C30.1698 19.4795 27.644 19.1086 24.7941 19.1086C21.9442 19.1086 19.3972 19.4795 17.2836 20.2105C17.3188 19.9585 17.3399 19.6848 17.3399 19.3895V19.3859ZM31.5472 28.7013C30.2509 31.33 27.6581 32.9612 24.7835 32.9612C21.909 32.9612 19.3162 31.33 18.0269 28.7013C17.4914 27.6175 17.2202 26.4472 17.2202 25.2265C17.2202 24.0058 17.5125 22.8247 18.041 21.7517C19.9362 21.1287 22.2013 20.8119 24.7871 20.8119C27.3728 20.8119 29.6168 21.1287 31.5191 21.7481C32.0545 22.8175 32.3469 24.0094 32.3469 25.2265C32.3469 26.4436 32.0757 27.6175 31.5437 28.7013H31.5472Z" fill="white"/>
<path d="M33.8828 22.6735C34.3443 22.6735 34.7177 22.2918 34.7177 21.8201C34.7177 21.5644 34.6085 21.334 34.4359 21.1791C34.0836 20.7362 33.9075 20.1349 33.9075 19.3859C33.9075 13.7902 31.6424 10.2757 27.5172 9.44034L26.9254 8.4177C26.7739 8.15844 26.5026 8 26.2067 8H23.3744C23.0785 8 22.8037 8.16204 22.6558 8.4213L22.0886 9.41154C17.3646 10.0813 15.6737 15.1477 15.6737 19.3895C15.6737 20.1781 15.4764 20.8083 15.0854 21.2548C14.8176 21.5644 14.8 22.0253 15.0501 22.3494C15.2122 22.5619 15.4588 22.6771 15.7089 22.6771C15.7793 22.6771 15.8463 22.6663 15.9132 22.6483C15.6807 23.4837 15.5574 24.3551 15.5574 25.2301C15.5574 26.7209 15.8885 28.1504 16.5403 29.4719C18.1149 32.6803 21.2749 34.6716 24.7871 34.6716C28.2993 34.6716 31.4592 32.6803 33.0409 29.4719C33.6926 28.1468 34.0238 26.7209 34.0238 25.2301C34.0238 24.3515 33.9005 23.4837 33.668 22.6483C33.7349 22.6663 33.8053 22.6771 33.8723 22.6771C33.8758 22.6771 33.8793 22.6771 33.8828 22.6771V22.6735ZM17.3399 19.3859C17.3399 18.1472 17.5654 12.2526 21.7857 11.2048V13.2897C21.7857 13.7614 22.1591 14.1431 22.6206 14.1431C23.082 14.1431 23.4555 13.7614 23.4555 13.2897V10.3946L23.85 9.70321H25.7276L26.1574 10.445V13.2897C26.1574 13.7614 26.5308 14.1431 26.9923 14.1431C27.4538 14.1431 27.8272 13.7614 27.8272 13.2897V11.284C30.7511 12.177 32.2377 14.892 32.2377 19.3895C32.2377 19.6812 32.2588 19.9549 32.2941 20.2069C30.1698 19.4795 27.644 19.1086 24.7941 19.1086C21.9442 19.1086 19.3972 19.4795 17.2836 20.2105C17.3188 19.9585 17.3399 19.6848 17.3399 19.3895V19.3859ZM31.5472 28.7013C30.2509 31.33 27.6581 32.9612 24.7835 32.9612C21.909 32.9612 19.3162 31.33 18.0269 28.7013C17.4914 27.6175 17.2202 26.4472 17.2202 25.2265C17.2202 24.0058 17.5125 22.8247 18.041 21.7517C19.9362 21.1287 22.2013 20.8119 24.7871 20.8119C27.3728 20.8119 29.6168 21.1287 31.5191 21.7481C32.0545 22.8175 32.3469 24.0094 32.3469 25.2265C32.3469 26.4436 32.0757 27.6175 31.5437 28.7013H31.5472Z" stroke="#1E1E1E"/>
<path d="M33.8828 22.6735C34.3443 22.6735 34.7177 22.2918 34.7177 21.8201C34.7177 21.5644 34.6085 21.334 34.4359 21.1791C34.0836 20.7362 33.9075 20.1349 33.9075 19.3859C33.9075 13.7902 31.6424 10.2757 27.5172 9.44034L26.9254 8.4177C26.7739 8.15844 26.5026 8 26.2067 8H23.3744C23.0785 8 22.8037 8.16204 22.6558 8.4213L22.0886 9.41154C17.3646 10.0813 15.6737 15.1477 15.6737 19.3895C15.6737 20.1781 15.4764 20.8083 15.0854 21.2548C14.8176 21.5644 14.8 22.0253 15.0501 22.3494C15.2122 22.5619 15.4588 22.6771 15.7089 22.6771C15.7793 22.6771 15.8463 22.6663 15.9132 22.6483C15.6807 23.4837 15.5574 24.3551 15.5574 25.2301C15.5574 26.7209 15.8885 28.1504 16.5403 29.4719C18.1149 32.6803 21.2749 34.6716 24.7871 34.6716C28.2993 34.6716 31.4592 32.6803 33.0409 29.4719C33.6926 28.1468 34.0238 26.7209 34.0238 25.2301C34.0238 24.3515 33.9005 23.4837 33.668 22.6483C33.7349 22.6663 33.8053 22.6771 33.8723 22.6771C33.8758 22.6771 33.8793 22.6771 33.8828 22.6771V22.6735ZM17.3399 19.3859C17.3399 18.1472 17.5654 12.2526 21.7857 11.2048V13.2897C21.7857 13.7614 22.1591 14.1431 22.6206 14.1431C23.082 14.1431 23.4555 13.7614 23.4555 13.2897V10.3946L23.85 9.70321H25.7276L26.1574 10.445V13.2897C26.1574 13.7614 26.5308 14.1431 26.9923 14.1431C27.4538 14.1431 27.8272 13.7614 27.8272 13.2897V11.284C30.7511 12.177 32.2377 14.892 32.2377 19.3895C32.2377 19.6812 32.2588 19.9549 32.2941 20.2069C30.1698 19.4795 27.644 19.1086 24.7941 19.1086C21.9442 19.1086 19.3972 19.4795 17.2836 20.2105C17.3188 19.9585 17.3399 19.6848 17.3399 19.3895V19.3859ZM31.5472 28.7013C30.2509 31.33 27.6581 32.9612 24.7835 32.9612C21.909 32.9612 19.3162 31.33 18.0269 28.7013C17.4914 27.6175 17.2202 26.4472 17.2202 25.2265C17.2202 24.0058 17.5125 22.8247 18.041 21.7517C19.9362 21.1287 22.2013 20.8119 24.7871 20.8119C27.3728 20.8119 29.6168 21.1287 31.5191 21.7481C32.0545 22.8175 32.3469 24.0094 32.3469 25.2265C32.3469 26.4436 32.0757 27.6175 31.5437 28.7013H31.5472Z" stroke="white"/>
<path d="M34.2315 38.1716C32.6145 37.1669 31.0081 36.4215 29.4053 35.9282C29.2855 35.8274 29.1411 35.759 28.979 35.741L28.507 35.6834C26.0516 35.0748 23.6068 35.0712 21.1514 35.6726L20.5878 35.741C20.4187 35.7626 20.2672 35.8382 20.1439 35.9498C18.5657 36.4431 16.984 37.1849 15.3882 38.1752C11.0164 40.8866 6 45.7298 6 59.1466C6 59.6183 6.37341 60 6.8349 60C7.29638 60 7.66979 59.6183 7.66979 59.1466C7.66979 46.5796 12.26 42.1145 16.2548 39.6299C17.6568 38.7585 19.0483 38.1031 20.4328 37.6566L23.4025 41.6716L21.0352 51.664C20.9753 51.9232 21.0352 52.1969 21.2007 52.4022L24.1563 56.1146C24.3149 56.3127 24.5509 56.4279 24.8045 56.4279H24.8116C25.0652 56.4279 25.3012 56.3091 25.4598 56.1038L28.4189 52.2869C28.5809 52.0781 28.6373 51.808 28.5739 51.5523L26.1643 41.668L29.1411 37.6422C30.5396 38.0887 31.9452 38.7513 33.3613 39.6299C37.3597 42.1145 41.9463 46.5796 41.9463 59.1466C41.9463 59.6183 42.3197 60 42.7812 60C43.2427 60 43.6161 59.6183 43.6161 59.1466C43.6161 45.7298 38.5997 40.8866 34.2279 38.1716H34.2315ZM24.7975 54.2134L22.7578 51.6532L24.7904 43.0687L26.8583 51.556L24.7975 54.2134ZM27.3409 37.2533L24.7869 40.7066L22.2329 37.2533L24.72 36.9473C24.7552 36.9473 24.794 36.9473 24.8292 36.9473L27.3409 37.2569V37.2533Z" fill="#1E1E1E"/>
<path d="M34.2315 38.1716C32.6145 37.1669 31.0081 36.4215 29.4053 35.9282C29.2855 35.8274 29.1411 35.759 28.979 35.741L28.507 35.6834C26.0516 35.0748 23.6068 35.0712 21.1514 35.6726L20.5878 35.741C20.4187 35.7626 20.2672 35.8382 20.1439 35.9498C18.5657 36.4431 16.984 37.1849 15.3882 38.1752C11.0164 40.8866 6 45.7298 6 59.1466C6 59.6183 6.37341 60 6.8349 60C7.29638 60 7.66979 59.6183 7.66979 59.1466C7.66979 46.5796 12.26 42.1145 16.2548 39.6299C17.6568 38.7585 19.0483 38.1031 20.4328 37.6566L23.4025 41.6716L21.0352 51.664C20.9753 51.9232 21.0352 52.1969 21.2007 52.4022L24.1563 56.1146C24.3149 56.3127 24.5509 56.4279 24.8045 56.4279H24.8116C25.0652 56.4279 25.3012 56.3091 25.4598 56.1038L28.4189 52.2869C28.5809 52.0781 28.6373 51.808 28.5739 51.5523L26.1643 41.668L29.1411 37.6422C30.5396 38.0887 31.9452 38.7513 33.3613 39.6299C37.3597 42.1145 41.9463 46.5796 41.9463 59.1466C41.9463 59.6183 42.3197 60 42.7812 60C43.2427 60 43.6161 59.6183 43.6161 59.1466C43.6161 45.7298 38.5997 40.8866 34.2279 38.1716H34.2315ZM24.7975 54.2134L22.7578 51.6532L24.7904 43.0687L26.8583 51.556L24.7975 54.2134ZM27.3409 37.2533L24.7869 40.7066L22.2329 37.2533L24.72 36.9473C24.7552 36.9473 24.794 36.9473 24.8292 36.9473L27.3409 37.2569V37.2533Z" fill="white"/>
<path d="M34.2315 38.1716C32.6145 37.1669 31.0081 36.4215 29.4053 35.9282C29.2855 35.8274 29.1411 35.759 28.979 35.741L28.507 35.6834C26.0516 35.0748 23.6068 35.0712 21.1514 35.6726L20.5878 35.741C20.4187 35.7626 20.2672 35.8382 20.1439 35.9498C18.5657 36.4431 16.984 37.1849 15.3882 38.1752C11.0164 40.8866 6 45.7298 6 59.1466C6 59.6183 6.37341 60 6.8349 60C7.29638 60 7.66979 59.6183 7.66979 59.1466C7.66979 46.5796 12.26 42.1145 16.2548 39.6299C17.6568 38.7585 19.0483 38.1031 20.4328 37.6566L23.4025 41.6716L21.0352 51.664C20.9753 51.9232 21.0352 52.1969 21.2007 52.4022L24.1563 56.1146C24.3149 56.3127 24.5509 56.4279 24.8045 56.4279H24.8116C25.0652 56.4279 25.3012 56.3091 25.4598 56.1038L28.4189 52.2869C28.5809 52.0781 28.6373 51.808 28.5739 51.5523L26.1643 41.668L29.1411 37.6422C30.5396 38.0887 31.9452 38.7513 33.3613 39.6299C37.3597 42.1145 41.9463 46.5796 41.9463 59.1466C41.9463 59.6183 42.3197 60 42.7812 60C43.2427 60 43.6161 59.6183 43.6161 59.1466C43.6161 45.7298 38.5997 40.8866 34.2279 38.1716H34.2315ZM24.7975 54.2134L22.7578 51.6532L24.7904 43.0687L26.8583 51.556L24.7975 54.2134ZM27.3409 37.2533L24.7869 40.7066L22.2329 37.2533L24.72 36.9473C24.7552 36.9473 24.794 36.9473 24.8292 36.9473L27.3409 37.2569V37.2533Z" stroke="#1E1E1E"/>
<path d="M34.2315 38.1716C32.6145 37.1669 31.0081 36.4215 29.4053 35.9282C29.2855 35.8274 29.1411 35.759 28.979 35.741L28.507 35.6834C26.0516 35.0748 23.6068 35.0712 21.1514 35.6726L20.5878 35.741C20.4187 35.7626 20.2672 35.8382 20.1439 35.9498C18.5657 36.4431 16.984 37.1849 15.3882 38.1752C11.0164 40.8866 6 45.7298 6 59.1466C6 59.6183 6.37341 60 6.8349 60C7.29638 60 7.66979 59.6183 7.66979 59.1466C7.66979 46.5796 12.26 42.1145 16.2548 39.6299C17.6568 38.7585 19.0483 38.1031 20.4328 37.6566L23.4025 41.6716L21.0352 51.664C20.9753 51.9232 21.0352 52.1969 21.2007 52.4022L24.1563 56.1146C24.3149 56.3127 24.5509 56.4279 24.8045 56.4279H24.8116C25.0652 56.4279 25.3012 56.3091 25.4598 56.1038L28.4189 52.2869C28.5809 52.0781 28.6373 51.808 28.5739 51.5523L26.1643 41.668L29.1411 37.6422C30.5396 38.0887 31.9452 38.7513 33.3613 39.6299C37.3597 42.1145 41.9463 46.5796 41.9463 59.1466C41.9463 59.6183 42.3197 60 42.7812 60C43.2427 60 43.6161 59.6183 43.6161 59.1466C43.6161 45.7298 38.5997 40.8866 34.2279 38.1716H34.2315ZM24.7975 54.2134L22.7578 51.6532L24.7904 43.0687L26.8583 51.556L24.7975 54.2134ZM27.3409 37.2533L24.7869 40.7066L22.2329 37.2533L24.72 36.9473C24.7552 36.9473 24.794 36.9473 24.8292 36.9473L27.3409 37.2569V37.2533Z" stroke="white"/>
<path d="M60.0748 33.0522C55.0079 33.0522 48.7048 28.2541 48.6418 28.2061C48.2838 27.9313 47.7828 27.9313 47.4248 28.2061C47.3618 28.2541 41.0689 33.0522 35.9929 33.0522C35.4447 33.0522 35 33.4934 35 34.0375V46.8474C35 49.8212 36.2485 52.5134 38.3401 54.0472C40.1683 55.3878 45.2702 58.7346 46.2743 59.3926L47.4879 60.1869C47.6534 60.2953 47.8447 60.35 48.035 60.35C48.2253 60.35 48.4155 60.2953 48.5821 60.1869L49.7957 59.3926C50.7998 58.7358 55.9006 55.3889 57.7299 54.0472C59.8215 52.5134 61.07 49.8223 61.07 46.8474V34.0375C61.07 33.4934 60.6253 33.0522 60.0771 33.0522H60.0748ZM54.7017 41.4931L47.7547 48.3868C47.5689 48.5711 47.3156 48.675 47.0522 48.675C46.7888 48.675 46.5366 48.5711 46.3498 48.3868L42.1001 44.1697C41.7117 43.7843 41.7117 43.1609 42.1001 42.7755C42.4885 42.3901 43.1166 42.3901 43.505 42.7755L47.0522 46.2956L53.2967 40.0989C53.6851 39.7135 54.3133 39.7135 54.7017 40.0989C55.09 40.4843 55.09 41.1077 54.7017 41.4931Z" fill="white"/>
</g>
</svg>
