<svg width="68" height="68" viewBox="0 0 68 68" fill="none" xmlns="http://www.w3.org/2000/svg">
<g clip-path="url(#clip0_467_17)">
<mask id="mask0_467_17" style="mask-type:alpha" maskUnits="userSpaceOnUse" x="0" y="0" width="68" height="68">
<path d="M68 0H0V68H68V0Z" fill="#D9D9D9"/>
</mask>
<g mask="url(#mask0_467_17)">
<path d="M19.2581 54.7506H12.9015C12.0309 54.7506 11.3252 54.0486 11.3252 53.1827V48.9833" stroke="white" stroke-width="3" stroke-linecap="round" stroke-linejoin="round"/>
<path d="M46.7215 54.7505H27.8025" stroke="white" stroke-width="3" stroke-linecap="round" stroke-linejoin="round"/>
<path d="M43.6709 36.9231V38.6637C43.6709 42.1836 46.5404 45.0379 50.0791 45.0379H63.2V50.2996C63.2 52.7585 61.196 54.7518 58.7241 54.7518H55.2658" stroke="white" stroke-width="3" stroke-linecap="round" stroke-linejoin="round"/>
<path d="M11.324 25.839V23.8682C11.324 23.0023 12.0247 22.3003 12.8952 22.3003H24.6147" stroke="white" stroke-width="3" stroke-linecap="round" stroke-linejoin="round"/>
<path d="M52.5623 30.3412C58.4962 33.3243 63.1999 38.7901 63.1999 45.0379" stroke="white" stroke-width="3" stroke-linecap="round" stroke-linejoin="round"/>
<path d="M23.5302 59C25.8897 59 27.8024 57.0975 27.8024 54.7506C27.8024 52.4036 25.8897 50.5011 23.5302 50.5011C21.1708 50.5011 19.2581 52.4036 19.2581 54.7506C19.2581 57.0975 21.1708 59 23.5302 59Z" stroke="#1E1E1E" stroke-width="3" stroke-linecap="round" stroke-linejoin="round"/>
<path d="M23.5302 59C25.8897 59 27.8024 57.0975 27.8024 54.7506C27.8024 52.4036 25.8897 50.5011 23.5302 50.5011C21.1708 50.5011 19.2581 52.4036 19.2581 54.7506C19.2581 57.0975 21.1708 59 23.5302 59Z" stroke="white" stroke-width="3" stroke-linecap="round" stroke-linejoin="round"/>
<path d="M55.2657 54.7506C55.2657 52.4031 53.3536 50.5011 50.9936 50.5011C48.6336 50.5011 46.7214 52.4031 46.7214 54.7506C46.7214 57.098 48.6336 59 50.9936 59C53.3536 59 55.2657 57.098 55.2657 54.7506Z" stroke="white" stroke-width="3" stroke-linecap="round" stroke-linejoin="round"/>
<path d="M57.7075 48.0735V48.1874C57.7075 49.1308 58.4762 49.8941 59.4234 49.8941H60.148" stroke="white" stroke-width="3" stroke-linecap="round" stroke-linejoin="round"/>
<path d="M24.6148 29.8982H4" stroke="white" stroke-width="3" stroke-linecap="round" stroke-linejoin="round"/>
<path d="M21.3904 37.475H11.0044" stroke="white" stroke-width="3" stroke-linecap="round" stroke-linejoin="round"/>
<path d="M28.6227 44.4961H7.04932" stroke="white" stroke-width="3" stroke-linecap="round" stroke-linejoin="round"/>
<path d="M49.9751 12.0353C45.4698 12.0353 39.8655 7.77568 39.8094 7.73303C39.4911 7.48906 39.0457 7.48906 38.7274 7.73303C38.6714 7.77568 33.0761 12.0353 28.5628 12.0353C28.0753 12.0353 27.6799 12.427 27.6799 12.91V24.2826C27.6799 26.9227 28.79 29.3128 30.6498 30.6745C32.2753 31.8646 36.8116 34.836 37.7044 35.4201L38.7835 36.1253C38.9306 36.2215 39.1008 36.27 39.2699 36.27C39.4391 36.27 39.6083 36.2215 39.7564 36.1253L40.8354 35.4201C41.7283 34.8369 46.2636 31.8656 47.8901 30.6745C49.7499 29.3128 50.8599 26.9237 50.8599 24.2826V12.91C50.8599 12.427 50.4646 12.0353 49.9771 12.0353H49.9751ZM45.1976 19.5291L39.0207 25.6492C38.8555 25.8129 38.6303 25.9051 38.3961 25.9051C38.1619 25.9051 37.9377 25.8129 37.7715 25.6492L33.9929 21.9053C33.6476 21.5632 33.6476 21.0098 33.9929 20.6676C34.3383 20.3255 34.8968 20.3255 35.2421 20.6676L38.3961 23.7927L43.9484 18.2913C44.2937 17.9492 44.8522 17.9492 45.1976 18.2913C45.5429 18.6335 45.5429 19.1869 45.1976 19.5291Z" fill="white"/>
</g>
</g>
<defs>
<clipPath id="clip0_467_17">
<rect width="68" height="68" fill="white"/>
</clipPath>
</defs>
</svg>
