<svg width="68" height="68" viewBox="0 0 68 68" fill="none" xmlns="http://www.w3.org/2000/svg">
<mask id="mask0_12_174" style="mask-type:alpha" maskUnits="userSpaceOnUse" x="0" y="0" width="68" height="68">
<rect width="68" height="68" fill="#D9D9D9"/>
</mask>
<g mask="url(#mask0_12_174)">
<path d="M27.9662 44.4688C29.8272 45.1084 31.9805 45.5104 34.4556 45.6136C35.0858 45.6569 35.6236 45.1556 35.6236 44.5196C35.6236 43.9209 35.1951 43.3589 34.5461 43.3549C31.9237 43.2148 29.6986 42.7962 27.9292 42.0393C27.4233 41.8086 26.8818 42.0049 26.5792 42.4423L26.5791 42.4423L26.5751 42.4484L23.4499 47.2602H20.1442L19.9759 39.7318C19.9748 39.3943 19.7875 39.0845 19.5393 38.8752L19.517 38.8564L19.5039 38.8497C19.4986 38.846 19.4913 38.8407 19.4815 38.8335C19.4577 38.816 19.4235 38.7904 19.379 38.7568C19.2902 38.6897 19.1632 38.5926 19.0026 38.469C18.6816 38.222 18.2279 37.8704 17.6808 37.4437C16.5866 36.5904 15.1192 35.4376 13.5921 34.2222C10.5301 31.7852 7.25061 29.114 6.23803 28.0895C5.67001 27.5148 5.34054 26.5265 5.17287 25.4347C5.02224 24.4538 5.00799 23.4299 5.04505 22.6397H7.44251C8.05556 22.6803 10.6632 22.4917 13.5739 17.879L13.5739 17.879L13.5757 17.8762C14.6743 16.0832 15.0878 14.3591 14.6826 12.7929C14.4248 11.783 13.8854 11.0596 13.3882 10.5735C13.6936 10.3445 14.2033 10.1147 15.0664 10.1147C15.3788 10.1147 15.8169 10.295 16.3531 10.6554C16.8794 11.0092 17.4637 11.5111 18.0598 12.0968C19.2514 13.2676 20.4673 14.7507 21.3289 15.9886L21.3289 15.9886L21.3311 15.9917C21.6849 16.4838 22.3971 16.6277 22.8993 16.2582C23.3856 15.9003 23.525 15.1849 23.1636 14.6807C22.762 14.1154 21.5363 12.4142 20.0233 10.8435C19.267 10.0583 18.4329 9.29932 17.5885 8.7305C16.7486 8.16469 15.8725 7.76927 15.0373 7.75007L15.0373 7.75H15.0316C13.2772 7.75 12.2108 8.38463 11.5844 9.05652C11.2742 9.38927 11.0766 9.72604 10.956 9.98845C10.8957 10.1197 10.8543 10.2333 10.8274 10.32C10.814 10.3632 10.8039 10.4008 10.7969 10.4314C10.794 10.444 10.7893 10.465 10.7861 10.4883C10.6681 10.9612 10.8696 11.4803 11.2986 11.7208C11.2989 11.7211 11.2992 11.7213 11.2994 11.7215C11.3136 11.7336 11.3304 11.7463 11.3441 11.7565C11.3538 11.7637 11.3638 11.7712 11.3744 11.779C11.3987 11.797 11.4263 11.8174 11.4597 11.8431C11.5529 11.9146 11.6783 12.0169 11.8112 12.1514C12.0779 12.4213 12.3684 12.8136 12.4935 13.3357L12.4939 13.3374C12.7145 14.2301 12.4717 15.3199 11.6554 16.6277C10.4538 18.5382 9.40134 19.4658 8.66778 19.9162C8.30103 20.1413 8.01252 20.2481 7.82237 20.2989C7.72716 20.3243 7.65611 20.3358 7.61169 20.3411C7.58947 20.3437 7.57386 20.3447 7.56517 20.3451L7.55758 20.3454H7.55545H7.55525H7.55504H7.55484H7.55463H7.55442H7.55421H7.55401H7.5538H7.55359H7.55337H7.55316H7.55295H7.55274H7.55252H7.55231H7.55209H7.55188H7.55166H7.55144H7.55122H7.551H7.55078H7.55056H7.55034H7.55012H7.5499H7.54967H7.54945H7.54923H7.549H7.54878H7.54855H7.54832H7.54809H7.54787H7.54764H7.54741H7.54718H7.54695H7.54671H7.54648H7.54625H7.54602H7.54578H7.54555H7.54531H7.54508H7.54484H7.5446H7.54437H7.54413H7.54389H7.54365H7.54341H7.54317H7.54293H7.54269H7.54245H7.5422H7.54196H7.54172H7.54147H7.54123H7.54099H7.54074H7.54049H7.54025H7.54H7.53975H7.53951H7.53926H7.53901H7.53876H7.53851H7.53826H7.53801H7.53776H7.53751H7.53725H7.537H7.53675H7.5365H7.53624H7.53599H7.53573H7.53548H7.53522H7.53497H7.53471H7.53446H7.5342H7.53394H7.53369H7.53343H7.53317H7.53291H7.53265H7.53239H7.53213H7.53187H7.53161H7.53135H7.53109H7.53083H7.53057H7.53031H7.53005H7.52978H7.52952H7.52926H7.529H7.52873H7.52847H7.5282H7.52794H7.52767H7.52741H7.52714H7.52688H7.52661H7.52635H7.52608H7.52582H7.52555H7.52528H7.52502H7.52475H7.52448H7.52421H7.52395H7.52368H7.52341H7.52314H7.52287H7.5226H7.52234H7.52207H7.5218H7.52153H7.52126H7.52099H7.52072H7.52045H7.52018H7.51991H7.51964H7.51937H7.5191H7.51883H7.51856H7.51829H7.51802H7.51775H7.51748H7.5172H7.51693H7.51666H7.51639H7.51612H7.51585H7.51558H7.51531H7.51503H7.51476H7.51449H7.51422H7.51395H7.51368H7.5134H7.51313H7.51286H7.51259H7.51232H7.51205H7.51177H7.5115H7.51123H7.51096H7.51069H7.51042H7.51014H7.50987H7.5096H7.50933H7.50906H7.50879H7.50852H7.50825H7.50798H7.5077H7.50743H7.50716H7.50689H7.50662H7.50635H7.50608H7.50581H7.50554H7.50527H7.505H7.50473H7.50446H7.50419H7.50392H7.50366H7.50339H7.50312H7.50285H7.50258H7.50231H7.50205H7.50178H7.50151H7.50124H7.50098H7.50071H7.50044H7.50017H7.49991H7.49964H7.49938H7.49911H7.49885H7.49858H7.49832H7.49805H7.49779H7.49752H7.49726H7.49699H7.49673H7.49647H7.49621H7.49594H7.49568H7.49542H7.49516H7.4949H7.49464H7.49437H7.49411H7.49385H7.4936H7.49334H7.49308H7.49282H7.49256H7.4923H7.49204H7.49179H7.49153H7.49127H7.49102H7.49076H7.49051H7.49025H7.49H7.48974H7.48949H7.48924H7.48898H7.48873H7.48848H7.48823H7.48798H7.48773H7.48748H7.48723H7.48698H7.48673H7.48648H7.48623H7.48598H7.48574H7.48549H7.48524H7.485H7.48475H7.48451H7.48427H7.48402H7.48378H7.48354H7.48329H7.48305H7.48281H7.48257H7.48233H7.48209H7.48185H7.48162H7.48138H7.48114H7.4809H7.48067H7.48043H7.4802H7.47996H7.47973H7.4795H7.47927H7.47903H7.4788H7.47857H7.47834H7.47811H7.47788H7.47766H7.47743H7.4772H7.47698H7.47675H7.47653H7.4763H7.47608H7.47586H7.47563H7.47541H7.47519H7.47497H7.47475H7.47453H7.47432H7.4741H7.47388H7.47367H7.47345H7.47324H7.47302H7.47281H7.4726H7.47239H7.47218H7.47197H7.47176H7.47155H7.47134H7.47113H7.47093H7.47072H7.47052H7.47032H7.47011H7.46991H7.46971H7.46951H7.46931H7.46911H7.46891H7.46872H7.46852H7.46832H7.46813H7.46794H7.46774H7.46755H7.46736H7.46717H7.46698H7.46679H7.4666H7.46642H7.46623H7.46605H7.46586H7.46568H7.4655H7.46532H7.46514H7.46496H7.46478H7.4646H7.46442H7.46425H7.46407H7.4639H7.46373H7.46355H7.46338H7.46321H7.46304H7.46288H7.46271H7.46254H7.46238H7.46221H7.46205H7.46189H7.46173H7.46157H7.46141H7.46125H7.46109H7.46094H7.46078H7.46063H7.46048H7.46032H7.46017H7.46002H7.45988H7.45973H7.45958H7.45944H7.45929H7.45915H7.45901H7.45887H7.45873H7.45859H7.45845H7.45831H7.45818H7.45805H7.45791H7.45778H7.45765H7.45752H7.45739H7.45726H7.45714H7.45701H7.45689H7.45677H7.45665H7.45652H7.45641H7.45629H7.45617H7.45606H7.45594H7.45583H7.45572H7.45561H7.4555H7.45539H7.45528H7.45518H7.45507H7.45497H7.45487H7.45477H7.45467H7.45457H7.45447H7.45438H7.45428H7.45419H7.4541H7.45401H7.45392H7.45383H7.45374H7.45366H7.45357H7.45349H7.45341H7.45333H7.45325H7.45318H7.4531H7.45303H7.45295H7.45288H7.45281H7.45274H7.45267H7.45261H7.45254H7.45248H7.45242H7.45236H7.4523H7.45224H7.45218H7.45213H7.45207H7.45202H7.45197H7.45192H7.45187H7.45183H7.45178H7.45174H7.4517H7.45166H7.45162H7.45158H7.45154H7.45151H7.45148H7.45145H7.45142H7.45139H7.45136H7.45133H7.45131H7.45129H7.45127H7.45125H7.45123H7.45121H7.4512H7.45118H7.45117H7.45116H7.45115H7.45113H3.97386C3.38123 20.3454 2.9442 20.8047 2.85787 21.3288L2.85455 21.349V21.3691C2.85455 21.3688 2.85455 21.3686 2.85454 21.3686C2.85451 21.3686 2.85432 21.3741 2.85321 21.389C2.85204 21.4048 2.85026 21.4258 2.8479 21.4527C2.84631 21.4706 2.84447 21.4912 2.84242 21.514C2.83849 21.5578 2.8338 21.61 2.82878 21.6684C2.81335 21.8476 2.79396 22.0934 2.77829 22.3891C2.74696 22.9802 2.73036 23.7726 2.78994 24.6366C2.90804 26.3493 3.3291 28.4073 4.59456 29.7063L4.59583 29.7075C5.58227 30.7056 8.4044 33.0209 11.2025 35.2595C13.9207 37.434 16.6345 39.5506 17.6708 40.3524L17.8764 48.4283C17.8782 49.0261 18.3758 49.5193 18.9957 49.5193H23.9433L23.9596 49.5275L24.0128 49.5545H24.0725C24.4735 49.5545 24.7903 49.3685 25.0069 49.0616L25.0071 49.0618L25.0129 49.0529L27.9662 44.4688Z" fill="#1E1E1E"/>
<path d="M27.9662 44.4688C29.8272 45.1084 31.9805 45.5104 34.4556 45.6136C35.0858 45.6569 35.6236 45.1556 35.6236 44.5196C35.6236 43.9209 35.1951 43.3589 34.5461 43.3549C31.9237 43.2148 29.6986 42.7962 27.9292 42.0393C27.4233 41.8086 26.8818 42.0049 26.5792 42.4423L26.5791 42.4423L26.5751 42.4484L23.4499 47.2602H20.1442L19.9759 39.7318C19.9748 39.3943 19.7875 39.0845 19.5393 38.8752L19.517 38.8564L19.5039 38.8497C19.4986 38.846 19.4913 38.8407 19.4815 38.8335C19.4577 38.816 19.4235 38.7904 19.379 38.7568C19.2902 38.6897 19.1632 38.5926 19.0026 38.469C18.6816 38.222 18.2279 37.8704 17.6808 37.4437C16.5866 36.5904 15.1192 35.4376 13.5921 34.2222C10.5301 31.7852 7.25061 29.114 6.23803 28.0895C5.67001 27.5148 5.34054 26.5265 5.17287 25.4347C5.02224 24.4538 5.00799 23.4299 5.04505 22.6397H7.44251C8.05556 22.6803 10.6632 22.4917 13.5739 17.879L13.5739 17.879L13.5757 17.8762C14.6743 16.0832 15.0878 14.3591 14.6826 12.7929C14.4248 11.783 13.8854 11.0596 13.3882 10.5735C13.6936 10.3445 14.2033 10.1147 15.0664 10.1147C15.3788 10.1147 15.8169 10.295 16.3531 10.6554C16.8794 11.0092 17.4637 11.5111 18.0598 12.0968C19.2514 13.2676 20.4673 14.7507 21.3289 15.9886L21.3289 15.9886L21.3311 15.9917C21.6849 16.4838 22.3971 16.6277 22.8993 16.2582C23.3856 15.9003 23.525 15.1849 23.1636 14.6807C22.762 14.1154 21.5363 12.4142 20.0233 10.8435C19.267 10.0583 18.4329 9.29932 17.5885 8.7305C16.7486 8.16469 15.8725 7.76927 15.0373 7.75007L15.0373 7.75H15.0316C13.2772 7.75 12.2108 8.38463 11.5844 9.05652C11.2742 9.38927 11.0766 9.72604 10.956 9.98845C10.8957 10.1197 10.8543 10.2333 10.8274 10.32C10.814 10.3632 10.8039 10.4008 10.7969 10.4314C10.794 10.444 10.7893 10.465 10.7861 10.4883C10.6681 10.9612 10.8696 11.4803 11.2986 11.7208C11.2989 11.7211 11.2992 11.7213 11.2994 11.7215C11.3136 11.7336 11.3304 11.7463 11.3441 11.7565C11.3538 11.7637 11.3638 11.7712 11.3744 11.779C11.3987 11.797 11.4263 11.8174 11.4597 11.8431C11.5529 11.9146 11.6783 12.0169 11.8112 12.1514C12.0779 12.4213 12.3684 12.8136 12.4935 13.3357L12.4939 13.3374C12.7145 14.2301 12.4717 15.3199 11.6554 16.6277C10.4538 18.5382 9.40134 19.4658 8.66778 19.9162C8.30103 20.1413 8.01252 20.2481 7.82237 20.2989C7.72716 20.3243 7.65611 20.3358 7.61169 20.3411C7.58947 20.3437 7.57386 20.3447 7.56517 20.3451L7.55758 20.3454H7.55545H7.55525H7.55504H7.55484H7.55463H7.55442H7.55421H7.55401H7.5538H7.55359H7.55337H7.55316H7.55295H7.55274H7.55252H7.55231H7.55209H7.55188H7.55166H7.55144H7.55122H7.551H7.55078H7.55056H7.55034H7.55012H7.5499H7.54967H7.54945H7.54923H7.549H7.54878H7.54855H7.54832H7.54809H7.54787H7.54764H7.54741H7.54718H7.54695H7.54671H7.54648H7.54625H7.54602H7.54578H7.54555H7.54531H7.54508H7.54484H7.5446H7.54437H7.54413H7.54389H7.54365H7.54341H7.54317H7.54293H7.54269H7.54245H7.5422H7.54196H7.54172H7.54147H7.54123H7.54099H7.54074H7.54049H7.54025H7.54H7.53975H7.53951H7.53926H7.53901H7.53876H7.53851H7.53826H7.53801H7.53776H7.53751H7.53725H7.537H7.53675H7.5365H7.53624H7.53599H7.53573H7.53548H7.53522H7.53497H7.53471H7.53446H7.5342H7.53394H7.53369H7.53343H7.53317H7.53291H7.53265H7.53239H7.53213H7.53187H7.53161H7.53135H7.53109H7.53083H7.53057H7.53031H7.53005H7.52978H7.52952H7.52926H7.529H7.52873H7.52847H7.5282H7.52794H7.52767H7.52741H7.52714H7.52688H7.52661H7.52635H7.52608H7.52582H7.52555H7.52528H7.52502H7.52475H7.52448H7.52421H7.52395H7.52368H7.52341H7.52314H7.52287H7.5226H7.52234H7.52207H7.5218H7.52153H7.52126H7.52099H7.52072H7.52045H7.52018H7.51991H7.51964H7.51937H7.5191H7.51883H7.51856H7.51829H7.51802H7.51775H7.51748H7.5172H7.51693H7.51666H7.51639H7.51612H7.51585H7.51558H7.51531H7.51503H7.51476H7.51449H7.51422H7.51395H7.51368H7.5134H7.51313H7.51286H7.51259H7.51232H7.51205H7.51177H7.5115H7.51123H7.51096H7.51069H7.51042H7.51014H7.50987H7.5096H7.50933H7.50906H7.50879H7.50852H7.50825H7.50798H7.5077H7.50743H7.50716H7.50689H7.50662H7.50635H7.50608H7.50581H7.50554H7.50527H7.505H7.50473H7.50446H7.50419H7.50392H7.50366H7.50339H7.50312H7.50285H7.50258H7.50231H7.50205H7.50178H7.50151H7.50124H7.50098H7.50071H7.50044H7.50017H7.49991H7.49964H7.49938H7.49911H7.49885H7.49858H7.49832H7.49805H7.49779H7.49752H7.49726H7.49699H7.49673H7.49647H7.49621H7.49594H7.49568H7.49542H7.49516H7.4949H7.49464H7.49437H7.49411H7.49385H7.4936H7.49334H7.49308H7.49282H7.49256H7.4923H7.49204H7.49179H7.49153H7.49127H7.49102H7.49076H7.49051H7.49025H7.49H7.48974H7.48949H7.48924H7.48898H7.48873H7.48848H7.48823H7.48798H7.48773H7.48748H7.48723H7.48698H7.48673H7.48648H7.48623H7.48598H7.48574H7.48549H7.48524H7.485H7.48475H7.48451H7.48427H7.48402H7.48378H7.48354H7.48329H7.48305H7.48281H7.48257H7.48233H7.48209H7.48185H7.48162H7.48138H7.48114H7.4809H7.48067H7.48043H7.4802H7.47996H7.47973H7.4795H7.47927H7.47903H7.4788H7.47857H7.47834H7.47811H7.47788H7.47766H7.47743H7.4772H7.47698H7.47675H7.47653H7.4763H7.47608H7.47586H7.47563H7.47541H7.47519H7.47497H7.47475H7.47453H7.47432H7.4741H7.47388H7.47367H7.47345H7.47324H7.47302H7.47281H7.4726H7.47239H7.47218H7.47197H7.47176H7.47155H7.47134H7.47113H7.47093H7.47072H7.47052H7.47032H7.47011H7.46991H7.46971H7.46951H7.46931H7.46911H7.46891H7.46872H7.46852H7.46832H7.46813H7.46794H7.46774H7.46755H7.46736H7.46717H7.46698H7.46679H7.4666H7.46642H7.46623H7.46605H7.46586H7.46568H7.4655H7.46532H7.46514H7.46496H7.46478H7.4646H7.46442H7.46425H7.46407H7.4639H7.46373H7.46355H7.46338H7.46321H7.46304H7.46288H7.46271H7.46254H7.46238H7.46221H7.46205H7.46189H7.46173H7.46157H7.46141H7.46125H7.46109H7.46094H7.46078H7.46063H7.46048H7.46032H7.46017H7.46002H7.45988H7.45973H7.45958H7.45944H7.45929H7.45915H7.45901H7.45887H7.45873H7.45859H7.45845H7.45831H7.45818H7.45805H7.45791H7.45778H7.45765H7.45752H7.45739H7.45726H7.45714H7.45701H7.45689H7.45677H7.45665H7.45652H7.45641H7.45629H7.45617H7.45606H7.45594H7.45583H7.45572H7.45561H7.4555H7.45539H7.45528H7.45518H7.45507H7.45497H7.45487H7.45477H7.45467H7.45457H7.45447H7.45438H7.45428H7.45419H7.4541H7.45401H7.45392H7.45383H7.45374H7.45366H7.45357H7.45349H7.45341H7.45333H7.45325H7.45318H7.4531H7.45303H7.45295H7.45288H7.45281H7.45274H7.45267H7.45261H7.45254H7.45248H7.45242H7.45236H7.4523H7.45224H7.45218H7.45213H7.45207H7.45202H7.45197H7.45192H7.45187H7.45183H7.45178H7.45174H7.4517H7.45166H7.45162H7.45158H7.45154H7.45151H7.45148H7.45145H7.45142H7.45139H7.45136H7.45133H7.45131H7.45129H7.45127H7.45125H7.45123H7.45121H7.4512H7.45118H7.45117H7.45116H7.45115H7.45113H3.97386C3.38123 20.3454 2.9442 20.8047 2.85787 21.3288L2.85455 21.349V21.3691C2.85455 21.3688 2.85455 21.3686 2.85454 21.3686C2.85451 21.3686 2.85432 21.3741 2.85321 21.389C2.85204 21.4048 2.85026 21.4258 2.8479 21.4527C2.84631 21.4706 2.84447 21.4912 2.84242 21.514C2.83849 21.5578 2.8338 21.61 2.82878 21.6684C2.81335 21.8476 2.79396 22.0934 2.77829 22.3891C2.74696 22.9802 2.73036 23.7726 2.78994 24.6366C2.90804 26.3493 3.3291 28.4073 4.59456 29.7063L4.59583 29.7075C5.58227 30.7056 8.4044 33.0209 11.2025 35.2595C13.9207 37.434 16.6345 39.5506 17.6708 40.3524L17.8764 48.4283C17.8782 49.0261 18.3758 49.5193 18.9957 49.5193H23.9433L23.9596 49.5275L24.0128 49.5545H24.0725C24.4735 49.5545 24.7903 49.3685 25.0069 49.0616L25.0071 49.0618L25.0129 49.0529L27.9662 44.4688Z" fill="white"/>
<path d="M27.9662 44.4688C29.8272 45.1084 31.9805 45.5104 34.4556 45.6136C35.0858 45.6569 35.6236 45.1556 35.6236 44.5196C35.6236 43.9209 35.1951 43.3589 34.5461 43.3549C31.9237 43.2148 29.6986 42.7962 27.9292 42.0393C27.4233 41.8086 26.8818 42.0049 26.5792 42.4423L26.5791 42.4423L26.5751 42.4484L23.4499 47.2602H20.1442L19.9759 39.7318C19.9748 39.3943 19.7875 39.0845 19.5393 38.8752L19.517 38.8564L19.5039 38.8497C19.4986 38.846 19.4913 38.8407 19.4815 38.8335C19.4577 38.816 19.4235 38.7904 19.379 38.7568C19.2902 38.6897 19.1632 38.5926 19.0026 38.469C18.6816 38.222 18.2279 37.8704 17.6808 37.4437C16.5866 36.5904 15.1192 35.4376 13.5921 34.2222C10.5301 31.7852 7.25061 29.114 6.23803 28.0895C5.67001 27.5148 5.34054 26.5265 5.17287 25.4347C5.02224 24.4538 5.00799 23.4299 5.04505 22.6397H7.44251C8.05556 22.6803 10.6632 22.4917 13.5739 17.879L13.5739 17.879L13.5757 17.8762C14.6743 16.0832 15.0878 14.3591 14.6826 12.7929C14.4248 11.783 13.8854 11.0596 13.3882 10.5735C13.6936 10.3445 14.2033 10.1147 15.0664 10.1147C15.3788 10.1147 15.8169 10.295 16.3531 10.6554C16.8794 11.0092 17.4637 11.5111 18.0598 12.0968C19.2514 13.2676 20.4673 14.7507 21.3289 15.9886L21.3289 15.9886L21.3311 15.9917C21.6849 16.4838 22.3971 16.6277 22.8993 16.2582C23.3856 15.9003 23.525 15.1849 23.1636 14.6807C22.762 14.1154 21.5363 12.4142 20.0233 10.8435C19.267 10.0583 18.4329 9.29932 17.5885 8.7305C16.7486 8.16469 15.8725 7.76927 15.0373 7.75007L15.0373 7.75H15.0316C13.2772 7.75 12.2108 8.38463 11.5844 9.05652C11.2742 9.38927 11.0766 9.72604 10.956 9.98845C10.8957 10.1197 10.8543 10.2333 10.8274 10.32C10.814 10.3632 10.8039 10.4008 10.7969 10.4314C10.794 10.444 10.7893 10.465 10.7861 10.4883C10.6681 10.9612 10.8696 11.4803 11.2986 11.7208C11.2989 11.7211 11.2992 11.7213 11.2994 11.7215C11.3136 11.7336 11.3304 11.7463 11.3441 11.7565C11.3538 11.7637 11.3638 11.7712 11.3744 11.779C11.3987 11.797 11.4263 11.8174 11.4597 11.8431C11.5529 11.9146 11.6783 12.0169 11.8112 12.1514C12.0779 12.4213 12.3684 12.8136 12.4935 13.3357L12.4939 13.3374C12.7145 14.2301 12.4717 15.3199 11.6554 16.6277C10.4538 18.5382 9.40134 19.4658 8.66778 19.9162C8.30103 20.1413 8.01252 20.2481 7.82237 20.2989C7.72716 20.3243 7.65611 20.3358 7.61169 20.3411C7.58947 20.3437 7.57386 20.3447 7.56517 20.3451L7.55758 20.3454H7.55545H7.55525H7.55504H7.55484H7.55463H7.55442H7.55421H7.55401H7.5538H7.55359H7.55337H7.55316H7.55295H7.55274H7.55252H7.55231H7.55209H7.55188H7.55166H7.55144H7.55122H7.551H7.55078H7.55056H7.55034H7.55012H7.5499H7.54967H7.54945H7.54923H7.549H7.54878H7.54855H7.54832H7.54809H7.54787H7.54764H7.54741H7.54718H7.54695H7.54671H7.54648H7.54625H7.54602H7.54578H7.54555H7.54531H7.54508H7.54484H7.5446H7.54437H7.54413H7.54389H7.54365H7.54341H7.54317H7.54293H7.54269H7.54245H7.5422H7.54196H7.54172H7.54147H7.54123H7.54099H7.54074H7.54049H7.54025H7.54H7.53975H7.53951H7.53926H7.53901H7.53876H7.53851H7.53826H7.53801H7.53776H7.53751H7.53725H7.537H7.53675H7.5365H7.53624H7.53599H7.53573H7.53548H7.53522H7.53497H7.53471H7.53446H7.5342H7.53394H7.53369H7.53343H7.53317H7.53291H7.53265H7.53239H7.53213H7.53187H7.53161H7.53135H7.53109H7.53083H7.53057H7.53031H7.53005H7.52978H7.52952H7.52926H7.529H7.52873H7.52847H7.5282H7.52794H7.52767H7.52741H7.52714H7.52688H7.52661H7.52635H7.52608H7.52582H7.52555H7.52528H7.52502H7.52475H7.52448H7.52421H7.52395H7.52368H7.52341H7.52314H7.52287H7.5226H7.52234H7.52207H7.5218H7.52153H7.52126H7.52099H7.52072H7.52045H7.52018H7.51991H7.51964H7.51937H7.5191H7.51883H7.51856H7.51829H7.51802H7.51775H7.51748H7.5172H7.51693H7.51666H7.51639H7.51612H7.51585H7.51558H7.51531H7.51503H7.51476H7.51449H7.51422H7.51395H7.51368H7.5134H7.51313H7.51286H7.51259H7.51232H7.51205H7.51177H7.5115H7.51123H7.51096H7.51069H7.51042H7.51014H7.50987H7.5096H7.50933H7.50906H7.50879H7.50852H7.50825H7.50798H7.5077H7.50743H7.50716H7.50689H7.50662H7.50635H7.50608H7.50581H7.50554H7.50527H7.505H7.50473H7.50446H7.50419H7.50392H7.50366H7.50339H7.50312H7.50285H7.50258H7.50231H7.50205H7.50178H7.50151H7.50124H7.50098H7.50071H7.50044H7.50017H7.49991H7.49964H7.49938H7.49911H7.49885H7.49858H7.49832H7.49805H7.49779H7.49752H7.49726H7.49699H7.49673H7.49647H7.49621H7.49594H7.49568H7.49542H7.49516H7.4949H7.49464H7.49437H7.49411H7.49385H7.4936H7.49334H7.49308H7.49282H7.49256H7.4923H7.49204H7.49179H7.49153H7.49127H7.49102H7.49076H7.49051H7.49025H7.49H7.48974H7.48949H7.48924H7.48898H7.48873H7.48848H7.48823H7.48798H7.48773H7.48748H7.48723H7.48698H7.48673H7.48648H7.48623H7.48598H7.48574H7.48549H7.48524H7.485H7.48475H7.48451H7.48427H7.48402H7.48378H7.48354H7.48329H7.48305H7.48281H7.48257H7.48233H7.48209H7.48185H7.48162H7.48138H7.48114H7.4809H7.48067H7.48043H7.4802H7.47996H7.47973H7.4795H7.47927H7.47903H7.4788H7.47857H7.47834H7.47811H7.47788H7.47766H7.47743H7.4772H7.47698H7.47675H7.47653H7.4763H7.47608H7.47586H7.47563H7.47541H7.47519H7.47497H7.47475H7.47453H7.47432H7.4741H7.47388H7.47367H7.47345H7.47324H7.47302H7.47281H7.4726H7.47239H7.47218H7.47197H7.47176H7.47155H7.47134H7.47113H7.47093H7.47072H7.47052H7.47032H7.47011H7.46991H7.46971H7.46951H7.46931H7.46911H7.46891H7.46872H7.46852H7.46832H7.46813H7.46794H7.46774H7.46755H7.46736H7.46717H7.46698H7.46679H7.4666H7.46642H7.46623H7.46605H7.46586H7.46568H7.4655H7.46532H7.46514H7.46496H7.46478H7.4646H7.46442H7.46425H7.46407H7.4639H7.46373H7.46355H7.46338H7.46321H7.46304H7.46288H7.46271H7.46254H7.46238H7.46221H7.46205H7.46189H7.46173H7.46157H7.46141H7.46125H7.46109H7.46094H7.46078H7.46063H7.46048H7.46032H7.46017H7.46002H7.45988H7.45973H7.45958H7.45944H7.45929H7.45915H7.45901H7.45887H7.45873H7.45859H7.45845H7.45831H7.45818H7.45805H7.45791H7.45778H7.45765H7.45752H7.45739H7.45726H7.45714H7.45701H7.45689H7.45677H7.45665H7.45652H7.45641H7.45629H7.45617H7.45606H7.45594H7.45583H7.45572H7.45561H7.4555H7.45539H7.45528H7.45518H7.45507H7.45497H7.45487H7.45477H7.45467H7.45457H7.45447H7.45438H7.45428H7.45419H7.4541H7.45401H7.45392H7.45383H7.45374H7.45366H7.45357H7.45349H7.45341H7.45333H7.45325H7.45318H7.4531H7.45303H7.45295H7.45288H7.45281H7.45274H7.45267H7.45261H7.45254H7.45248H7.45242H7.45236H7.4523H7.45224H7.45218H7.45213H7.45207H7.45202H7.45197H7.45192H7.45187H7.45183H7.45178H7.45174H7.4517H7.45166H7.45162H7.45158H7.45154H7.45151H7.45148H7.45145H7.45142H7.45139H7.45136H7.45133H7.45131H7.45129H7.45127H7.45125H7.45123H7.45121H7.4512H7.45118H7.45117H7.45116H7.45115H7.45113H3.97386C3.38123 20.3454 2.9442 20.8047 2.85787 21.3288L2.85455 21.349V21.3691C2.85455 21.3688 2.85455 21.3686 2.85454 21.3686C2.85451 21.3686 2.85432 21.3741 2.85321 21.389C2.85204 21.4048 2.85026 21.4258 2.8479 21.4527C2.84631 21.4706 2.84447 21.4912 2.84242 21.514C2.83849 21.5578 2.8338 21.61 2.82878 21.6684C2.81335 21.8476 2.79396 22.0934 2.77829 22.3891C2.74696 22.9802 2.73036 23.7726 2.78994 24.6366C2.90804 26.3493 3.3291 28.4073 4.59456 29.7063L4.59583 29.7075C5.58227 30.7056 8.4044 33.0209 11.2025 35.2595C13.9207 37.434 16.6345 39.5506 17.6708 40.3524L17.8764 48.4283C17.8782 49.0261 18.3758 49.5193 18.9957 49.5193H23.9433L23.9596 49.5275L24.0128 49.5545H24.0725C24.4735 49.5545 24.7903 49.3685 25.0069 49.0616L25.0071 49.0618L25.0129 49.0529L27.9662 44.4688Z" stroke="#1E1E1E" stroke-width="0.5"/>
<path d="M27.9662 44.4688C29.8272 45.1084 31.9805 45.5104 34.4556 45.6136C35.0858 45.6569 35.6236 45.1556 35.6236 44.5196C35.6236 43.9209 35.1951 43.3589 34.5461 43.3549C31.9237 43.2148 29.6986 42.7962 27.9292 42.0393C27.4233 41.8086 26.8818 42.0049 26.5792 42.4423L26.5791 42.4423L26.5751 42.4484L23.4499 47.2602H20.1442L19.9759 39.7318C19.9748 39.3943 19.7875 39.0845 19.5393 38.8752L19.517 38.8564L19.5039 38.8497C19.4986 38.846 19.4913 38.8407 19.4815 38.8335C19.4577 38.816 19.4235 38.7904 19.379 38.7568C19.2902 38.6897 19.1632 38.5926 19.0026 38.469C18.6816 38.222 18.2279 37.8704 17.6808 37.4437C16.5866 36.5904 15.1192 35.4376 13.5921 34.2222C10.5301 31.7852 7.25061 29.114 6.23803 28.0895C5.67001 27.5148 5.34054 26.5265 5.17287 25.4347C5.02224 24.4538 5.00799 23.4299 5.04505 22.6397H7.44251C8.05556 22.6803 10.6632 22.4917 13.5739 17.879L13.5739 17.879L13.5757 17.8762C14.6743 16.0832 15.0878 14.3591 14.6826 12.7929C14.4248 11.783 13.8854 11.0596 13.3882 10.5735C13.6936 10.3445 14.2033 10.1147 15.0664 10.1147C15.3788 10.1147 15.8169 10.295 16.3531 10.6554C16.8794 11.0092 17.4637 11.5111 18.0598 12.0968C19.2514 13.2676 20.4673 14.7507 21.3289 15.9886L21.3289 15.9886L21.3311 15.9917C21.6849 16.4838 22.3971 16.6277 22.8993 16.2582C23.3856 15.9003 23.525 15.1849 23.1636 14.6807C22.762 14.1154 21.5363 12.4142 20.0233 10.8435C19.267 10.0583 18.4329 9.29932 17.5885 8.7305C16.7486 8.16469 15.8725 7.76927 15.0373 7.75007L15.0373 7.75H15.0316C13.2772 7.75 12.2108 8.38463 11.5844 9.05652C11.2742 9.38927 11.0766 9.72604 10.956 9.98845C10.8957 10.1197 10.8543 10.2333 10.8274 10.32C10.814 10.3632 10.8039 10.4008 10.7969 10.4314C10.794 10.444 10.7893 10.465 10.7861 10.4883C10.6681 10.9612 10.8696 11.4803 11.2986 11.7208C11.2989 11.7211 11.2992 11.7213 11.2994 11.7215C11.3136 11.7336 11.3304 11.7463 11.3441 11.7565C11.3538 11.7637 11.3638 11.7712 11.3744 11.779C11.3987 11.797 11.4263 11.8174 11.4597 11.8431C11.5529 11.9146 11.6783 12.0169 11.8112 12.1514C12.0779 12.4213 12.3684 12.8136 12.4935 13.3357L12.4939 13.3374C12.7145 14.2301 12.4717 15.3199 11.6554 16.6277C10.4538 18.5382 9.40134 19.4658 8.66778 19.9162C8.30103 20.1413 8.01252 20.2481 7.82237 20.2989C7.72716 20.3243 7.65611 20.3358 7.61169 20.3411C7.58947 20.3437 7.57386 20.3447 7.56517 20.3451L7.55758 20.3454H7.55545H7.55525H7.55504H7.55484H7.55463H7.55442H7.55421H7.55401H7.5538H7.55359H7.55337H7.55316H7.55295H7.55274H7.55252H7.55231H7.55209H7.55188H7.55166H7.55144H7.55122H7.551H7.55078H7.55056H7.55034H7.55012H7.5499H7.54967H7.54945H7.54923H7.549H7.54878H7.54855H7.54832H7.54809H7.54787H7.54764H7.54741H7.54718H7.54695H7.54671H7.54648H7.54625H7.54602H7.54578H7.54555H7.54531H7.54508H7.54484H7.5446H7.54437H7.54413H7.54389H7.54365H7.54341H7.54317H7.54293H7.54269H7.54245H7.5422H7.54196H7.54172H7.54147H7.54123H7.54099H7.54074H7.54049H7.54025H7.54H7.53975H7.53951H7.53926H7.53901H7.53876H7.53851H7.53826H7.53801H7.53776H7.53751H7.53725H7.537H7.53675H7.5365H7.53624H7.53599H7.53573H7.53548H7.53522H7.53497H7.53471H7.53446H7.5342H7.53394H7.53369H7.53343H7.53317H7.53291H7.53265H7.53239H7.53213H7.53187H7.53161H7.53135H7.53109H7.53083H7.53057H7.53031H7.53005H7.52978H7.52952H7.52926H7.529H7.52873H7.52847H7.5282H7.52794H7.52767H7.52741H7.52714H7.52688H7.52661H7.52635H7.52608H7.52582H7.52555H7.52528H7.52502H7.52475H7.52448H7.52421H7.52395H7.52368H7.52341H7.52314H7.52287H7.5226H7.52234H7.52207H7.5218H7.52153H7.52126H7.52099H7.52072H7.52045H7.52018H7.51991H7.51964H7.51937H7.5191H7.51883H7.51856H7.51829H7.51802H7.51775H7.51748H7.5172H7.51693H7.51666H7.51639H7.51612H7.51585H7.51558H7.51531H7.51503H7.51476H7.51449H7.51422H7.51395H7.51368H7.5134H7.51313H7.51286H7.51259H7.51232H7.51205H7.51177H7.5115H7.51123H7.51096H7.51069H7.51042H7.51014H7.50987H7.5096H7.50933H7.50906H7.50879H7.50852H7.50825H7.50798H7.5077H7.50743H7.50716H7.50689H7.50662H7.50635H7.50608H7.50581H7.50554H7.50527H7.505H7.50473H7.50446H7.50419H7.50392H7.50366H7.50339H7.50312H7.50285H7.50258H7.50231H7.50205H7.50178H7.50151H7.50124H7.50098H7.50071H7.50044H7.50017H7.49991H7.49964H7.49938H7.49911H7.49885H7.49858H7.49832H7.49805H7.49779H7.49752H7.49726H7.49699H7.49673H7.49647H7.49621H7.49594H7.49568H7.49542H7.49516H7.4949H7.49464H7.49437H7.49411H7.49385H7.4936H7.49334H7.49308H7.49282H7.49256H7.4923H7.49204H7.49179H7.49153H7.49127H7.49102H7.49076H7.49051H7.49025H7.49H7.48974H7.48949H7.48924H7.48898H7.48873H7.48848H7.48823H7.48798H7.48773H7.48748H7.48723H7.48698H7.48673H7.48648H7.48623H7.48598H7.48574H7.48549H7.48524H7.485H7.48475H7.48451H7.48427H7.48402H7.48378H7.48354H7.48329H7.48305H7.48281H7.48257H7.48233H7.48209H7.48185H7.48162H7.48138H7.48114H7.4809H7.48067H7.48043H7.4802H7.47996H7.47973H7.4795H7.47927H7.47903H7.4788H7.47857H7.47834H7.47811H7.47788H7.47766H7.47743H7.4772H7.47698H7.47675H7.47653H7.4763H7.47608H7.47586H7.47563H7.47541H7.47519H7.47497H7.47475H7.47453H7.47432H7.4741H7.47388H7.47367H7.47345H7.47324H7.47302H7.47281H7.4726H7.47239H7.47218H7.47197H7.47176H7.47155H7.47134H7.47113H7.47093H7.47072H7.47052H7.47032H7.47011H7.46991H7.46971H7.46951H7.46931H7.46911H7.46891H7.46872H7.46852H7.46832H7.46813H7.46794H7.46774H7.46755H7.46736H7.46717H7.46698H7.46679H7.4666H7.46642H7.46623H7.46605H7.46586H7.46568H7.4655H7.46532H7.46514H7.46496H7.46478H7.4646H7.46442H7.46425H7.46407H7.4639H7.46373H7.46355H7.46338H7.46321H7.46304H7.46288H7.46271H7.46254H7.46238H7.46221H7.46205H7.46189H7.46173H7.46157H7.46141H7.46125H7.46109H7.46094H7.46078H7.46063H7.46048H7.46032H7.46017H7.46002H7.45988H7.45973H7.45958H7.45944H7.45929H7.45915H7.45901H7.45887H7.45873H7.45859H7.45845H7.45831H7.45818H7.45805H7.45791H7.45778H7.45765H7.45752H7.45739H7.45726H7.45714H7.45701H7.45689H7.45677H7.45665H7.45652H7.45641H7.45629H7.45617H7.45606H7.45594H7.45583H7.45572H7.45561H7.4555H7.45539H7.45528H7.45518H7.45507H7.45497H7.45487H7.45477H7.45467H7.45457H7.45447H7.45438H7.45428H7.45419H7.4541H7.45401H7.45392H7.45383H7.45374H7.45366H7.45357H7.45349H7.45341H7.45333H7.45325H7.45318H7.4531H7.45303H7.45295H7.45288H7.45281H7.45274H7.45267H7.45261H7.45254H7.45248H7.45242H7.45236H7.4523H7.45224H7.45218H7.45213H7.45207H7.45202H7.45197H7.45192H7.45187H7.45183H7.45178H7.45174H7.4517H7.45166H7.45162H7.45158H7.45154H7.45151H7.45148H7.45145H7.45142H7.45139H7.45136H7.45133H7.45131H7.45129H7.45127H7.45125H7.45123H7.45121H7.4512H7.45118H7.45117H7.45116H7.45115H7.45113H3.97386C3.38123 20.3454 2.9442 20.8047 2.85787 21.3288L2.85455 21.349V21.3691C2.85455 21.3688 2.85455 21.3686 2.85454 21.3686C2.85451 21.3686 2.85432 21.3741 2.85321 21.389C2.85204 21.4048 2.85026 21.4258 2.8479 21.4527C2.84631 21.4706 2.84447 21.4912 2.84242 21.514C2.83849 21.5578 2.8338 21.61 2.82878 21.6684C2.81335 21.8476 2.79396 22.0934 2.77829 22.3891C2.74696 22.9802 2.73036 23.7726 2.78994 24.6366C2.90804 26.3493 3.3291 28.4073 4.59456 29.7063L4.59583 29.7075C5.58227 30.7056 8.4044 33.0209 11.2025 35.2595C13.9207 37.434 16.6345 39.5506 17.6708 40.3524L17.8764 48.4283C17.8782 49.0261 18.3758 49.5193 18.9957 49.5193H23.9433L23.9596 49.5275L24.0128 49.5545H24.0725C24.4735 49.5545 24.7903 49.3685 25.0069 49.0616L25.0071 49.0618L25.0129 49.0529L27.9662 44.4688Z" stroke="white" stroke-width="0.5"/>
<path d="M56.8565 26.7726L56.8561 26.78V26.7874C56.8561 27.3466 57.2821 27.9522 57.9406 27.9522H57.9408H57.941H57.9412H57.9414H57.9416H57.9418H57.942H57.9422H57.9424H57.9426H57.9428H57.943H57.9432H57.9434H57.9436H57.9438H57.944H57.9442H57.9443H57.9445H57.9447H57.9449H57.9451H57.9453H57.9455H57.9457H57.9458H57.946H57.9462H57.9464H57.9466H57.9467H57.9469H57.9471H57.9473H57.9474H57.9476H57.9478H57.948H57.9481H57.9483H57.9485H57.9487H57.9488H57.949H57.9492H57.9493H57.9495H57.9497H57.9498H57.95H57.9502H57.9503H57.9505H57.9507H57.9508H57.951H57.9511H57.9513H57.9515H57.9516H57.9518H57.9519H57.9521H57.9523H57.9524H57.9526H57.9527H57.9529H57.953H57.9532H57.9533H57.9535H57.9536H57.9538H57.9539H57.9541H57.9542H57.9544H57.9545H57.9546H57.9548H57.9549H57.9551H57.9552H57.9554H57.9555H57.9556H57.9558H57.9559H57.9561H57.9562H57.9563H57.9565H57.9566H57.9567H57.9569H57.957H57.9571H57.9573H57.9574H57.9575H57.9577H57.9578H57.9579H57.9581H57.9582H57.9583H57.9584H57.9586H57.9587H57.9588H57.9589H57.9591H57.9592H57.9593H57.9594H57.9595H57.9597H57.9598H57.9599H57.96H57.9601H57.9603H57.9604H57.9605H57.9606H57.9607H57.9608H57.9609H57.9611H57.9612H57.9613H57.9614H57.9615H57.9616H57.9617H57.9618H57.9619H57.9621H57.9622H57.9623H57.9624H57.9625H57.9626H57.9627H57.9628H57.9629H57.963H57.9631H57.9632H57.9633H57.9634H57.9635H57.9636H57.9637H57.9638H57.9639H57.964H57.9641H57.9642H57.9643H57.9644H57.9645H57.9646H57.9647H57.9648H57.9648H57.9649H57.965H57.9651H57.9652H57.9653H57.9654H57.9655H57.9656H57.9657H57.9657H57.9658H57.9659H57.966H57.9661H57.9662H57.9662H57.9663H57.9664H57.9665H57.9666H57.9667H57.9667H57.9668H57.9669H57.967H57.9671H57.9671H57.9672H57.9673H57.9674H57.9674H57.9675H57.9676H57.9677H57.9677H57.9678H57.9679H57.968H57.968H57.9681H57.9682H57.9683H57.9683H57.9684H57.9685H57.9685H57.9686H57.9687H57.9687H57.9688H57.9689H57.9689H57.969H57.9691H57.9691H57.9692H57.9693H57.9693H57.9694H57.9695H57.9695H57.9696H57.9696H57.9697H57.9698H57.9698H57.9699H57.9699H57.97H57.9701H57.9701H57.9702H57.9702H57.9703H57.9703H57.9704H57.9705H57.9705H57.9706H57.9706H57.9707H57.9707H57.9708H57.9708H57.9709H57.9709H57.971H57.971H57.9711H57.9711H57.9712H57.9712H57.9713H57.9713H57.9714H57.9714H57.9715H57.9715H57.9716H57.9716H57.9717H57.9717H57.9718H57.9718H57.9719H57.9719H57.9719H57.972H57.972H57.9721H57.9721H57.9722H57.9722H57.9722H57.9723H57.9723H57.9724H57.9724H57.9724H57.9725H57.9725H57.9726H57.9726H57.9726H57.9727H57.9727H57.9727H57.9728H57.9728H57.9729H57.9729H57.9729H57.973H57.973H57.973H57.9731H57.9731H57.9731H57.9732H57.9732H57.9732H57.9733H57.9733H57.9733H57.9734H57.9734H57.9734H57.9734H57.9735H57.9735H57.9736H57.9736H57.9737H57.9738H57.9738H57.9739H57.9739H57.974H57.974H57.974H57.9741H57.9741H57.9742H57.9742H57.9743H57.9743H57.9743H57.9744H57.9744H57.9745H57.9745H57.9745H57.9746H57.9746H57.9746H57.9747H57.9747H57.9747H57.9748H57.9748H57.9748H57.9749H57.9749H57.975H57.975H57.975H57.975H57.9751H57.9751H57.9751H57.9752H57.9752H57.9752H57.9753H57.9753H57.9753H57.9754H57.9754C58.5528 27.9522 59.0905 27.4672 59.0947 26.8648C59.27 23.5433 58.4566 20.2967 56.6975 17.1998L56.6975 17.1997C52.04 9.00664 44.036 7.3956 37.2263 7.82954C30.5045 8.25789 24.8851 10.6784 24.6269 10.7991L24.6269 10.7991C24.0623 11.0628 23.7824 11.6967 24.0532 12.2904C24.312 12.8576 24.9388 13.1463 25.5306 12.872C25.7131 12.7929 30.9383 10.5302 37.1596 10.0964C43.4223 9.65966 50.6287 11.0764 54.7676 18.3615L54.7678 18.3619C56.3112 21.0687 57.0272 23.9059 56.8565 26.7726Z" fill="#1E1E1E"/>
<path d="M56.8565 26.7726L56.8561 26.78V26.7874C56.8561 27.3466 57.2821 27.9522 57.9406 27.9522H57.9408H57.941H57.9412H57.9414H57.9416H57.9418H57.942H57.9422H57.9424H57.9426H57.9428H57.943H57.9432H57.9434H57.9436H57.9438H57.944H57.9442H57.9443H57.9445H57.9447H57.9449H57.9451H57.9453H57.9455H57.9457H57.9458H57.946H57.9462H57.9464H57.9466H57.9467H57.9469H57.9471H57.9473H57.9474H57.9476H57.9478H57.948H57.9481H57.9483H57.9485H57.9487H57.9488H57.949H57.9492H57.9493H57.9495H57.9497H57.9498H57.95H57.9502H57.9503H57.9505H57.9507H57.9508H57.951H57.9511H57.9513H57.9515H57.9516H57.9518H57.9519H57.9521H57.9523H57.9524H57.9526H57.9527H57.9529H57.953H57.9532H57.9533H57.9535H57.9536H57.9538H57.9539H57.9541H57.9542H57.9544H57.9545H57.9546H57.9548H57.9549H57.9551H57.9552H57.9554H57.9555H57.9556H57.9558H57.9559H57.9561H57.9562H57.9563H57.9565H57.9566H57.9567H57.9569H57.957H57.9571H57.9573H57.9574H57.9575H57.9577H57.9578H57.9579H57.9581H57.9582H57.9583H57.9584H57.9586H57.9587H57.9588H57.9589H57.9591H57.9592H57.9593H57.9594H57.9595H57.9597H57.9598H57.9599H57.96H57.9601H57.9603H57.9604H57.9605H57.9606H57.9607H57.9608H57.9609H57.9611H57.9612H57.9613H57.9614H57.9615H57.9616H57.9617H57.9618H57.9619H57.9621H57.9622H57.9623H57.9624H57.9625H57.9626H57.9627H57.9628H57.9629H57.963H57.9631H57.9632H57.9633H57.9634H57.9635H57.9636H57.9637H57.9638H57.9639H57.964H57.9641H57.9642H57.9643H57.9644H57.9645H57.9646H57.9647H57.9648H57.9648H57.9649H57.965H57.9651H57.9652H57.9653H57.9654H57.9655H57.9656H57.9657H57.9657H57.9658H57.9659H57.966H57.9661H57.9662H57.9662H57.9663H57.9664H57.9665H57.9666H57.9667H57.9667H57.9668H57.9669H57.967H57.9671H57.9671H57.9672H57.9673H57.9674H57.9674H57.9675H57.9676H57.9677H57.9677H57.9678H57.9679H57.968H57.968H57.9681H57.9682H57.9683H57.9683H57.9684H57.9685H57.9685H57.9686H57.9687H57.9687H57.9688H57.9689H57.9689H57.969H57.9691H57.9691H57.9692H57.9693H57.9693H57.9694H57.9695H57.9695H57.9696H57.9696H57.9697H57.9698H57.9698H57.9699H57.9699H57.97H57.9701H57.9701H57.9702H57.9702H57.9703H57.9703H57.9704H57.9705H57.9705H57.9706H57.9706H57.9707H57.9707H57.9708H57.9708H57.9709H57.9709H57.971H57.971H57.9711H57.9711H57.9712H57.9712H57.9713H57.9713H57.9714H57.9714H57.9715H57.9715H57.9716H57.9716H57.9717H57.9717H57.9718H57.9718H57.9719H57.9719H57.9719H57.972H57.972H57.9721H57.9721H57.9722H57.9722H57.9722H57.9723H57.9723H57.9724H57.9724H57.9724H57.9725H57.9725H57.9726H57.9726H57.9726H57.9727H57.9727H57.9727H57.9728H57.9728H57.9729H57.9729H57.9729H57.973H57.973H57.973H57.9731H57.9731H57.9731H57.9732H57.9732H57.9732H57.9733H57.9733H57.9733H57.9734H57.9734H57.9734H57.9734H57.9735H57.9735H57.9736H57.9736H57.9737H57.9738H57.9738H57.9739H57.9739H57.974H57.974H57.974H57.9741H57.9741H57.9742H57.9742H57.9743H57.9743H57.9743H57.9744H57.9744H57.9745H57.9745H57.9745H57.9746H57.9746H57.9746H57.9747H57.9747H57.9747H57.9748H57.9748H57.9748H57.9749H57.9749H57.975H57.975H57.975H57.975H57.9751H57.9751H57.9751H57.9752H57.9752H57.9752H57.9753H57.9753H57.9753H57.9754H57.9754C58.5528 27.9522 59.0905 27.4672 59.0947 26.8648C59.27 23.5433 58.4566 20.2967 56.6975 17.1998L56.6975 17.1997C52.04 9.00664 44.036 7.3956 37.2263 7.82954C30.5045 8.25789 24.8851 10.6784 24.6269 10.7991L24.6269 10.7991C24.0623 11.0628 23.7824 11.6967 24.0532 12.2904C24.312 12.8576 24.9388 13.1463 25.5306 12.872C25.7131 12.7929 30.9383 10.5302 37.1596 10.0964C43.4223 9.65966 50.6287 11.0764 54.7676 18.3615L54.7678 18.3619C56.3112 21.0687 57.0272 23.9059 56.8565 26.7726Z" fill="white"/>
<path d="M56.8565 26.7726L56.8561 26.78V26.7874C56.8561 27.3466 57.2821 27.9522 57.9406 27.9522H57.9408H57.941H57.9412H57.9414H57.9416H57.9418H57.942H57.9422H57.9424H57.9426H57.9428H57.943H57.9432H57.9434H57.9436H57.9438H57.944H57.9442H57.9443H57.9445H57.9447H57.9449H57.9451H57.9453H57.9455H57.9457H57.9458H57.946H57.9462H57.9464H57.9466H57.9467H57.9469H57.9471H57.9473H57.9474H57.9476H57.9478H57.948H57.9481H57.9483H57.9485H57.9487H57.9488H57.949H57.9492H57.9493H57.9495H57.9497H57.9498H57.95H57.9502H57.9503H57.9505H57.9507H57.9508H57.951H57.9511H57.9513H57.9515H57.9516H57.9518H57.9519H57.9521H57.9523H57.9524H57.9526H57.9527H57.9529H57.953H57.9532H57.9533H57.9535H57.9536H57.9538H57.9539H57.9541H57.9542H57.9544H57.9545H57.9546H57.9548H57.9549H57.9551H57.9552H57.9554H57.9555H57.9556H57.9558H57.9559H57.9561H57.9562H57.9563H57.9565H57.9566H57.9567H57.9569H57.957H57.9571H57.9573H57.9574H57.9575H57.9577H57.9578H57.9579H57.9581H57.9582H57.9583H57.9584H57.9586H57.9587H57.9588H57.9589H57.9591H57.9592H57.9593H57.9594H57.9595H57.9597H57.9598H57.9599H57.96H57.9601H57.9603H57.9604H57.9605H57.9606H57.9607H57.9608H57.9609H57.9611H57.9612H57.9613H57.9614H57.9615H57.9616H57.9617H57.9618H57.9619H57.9621H57.9622H57.9623H57.9624H57.9625H57.9626H57.9627H57.9628H57.9629H57.963H57.9631H57.9632H57.9633H57.9634H57.9635H57.9636H57.9637H57.9638H57.9639H57.964H57.9641H57.9642H57.9643H57.9644H57.9645H57.9646H57.9647H57.9648H57.9648H57.9649H57.965H57.9651H57.9652H57.9653H57.9654H57.9655H57.9656H57.9657H57.9657H57.9658H57.9659H57.966H57.9661H57.9662H57.9662H57.9663H57.9664H57.9665H57.9666H57.9667H57.9667H57.9668H57.9669H57.967H57.9671H57.9671H57.9672H57.9673H57.9674H57.9674H57.9675H57.9676H57.9677H57.9677H57.9678H57.9679H57.968H57.968H57.9681H57.9682H57.9683H57.9683H57.9684H57.9685H57.9685H57.9686H57.9687H57.9687H57.9688H57.9689H57.9689H57.969H57.9691H57.9691H57.9692H57.9693H57.9693H57.9694H57.9695H57.9695H57.9696H57.9696H57.9697H57.9698H57.9698H57.9699H57.9699H57.97H57.9701H57.9701H57.9702H57.9702H57.9703H57.9703H57.9704H57.9705H57.9705H57.9706H57.9706H57.9707H57.9707H57.9708H57.9708H57.9709H57.9709H57.971H57.971H57.9711H57.9711H57.9712H57.9712H57.9713H57.9713H57.9714H57.9714H57.9715H57.9715H57.9716H57.9716H57.9717H57.9717H57.9718H57.9718H57.9719H57.9719H57.9719H57.972H57.972H57.9721H57.9721H57.9722H57.9722H57.9722H57.9723H57.9723H57.9724H57.9724H57.9724H57.9725H57.9725H57.9726H57.9726H57.9726H57.9727H57.9727H57.9727H57.9728H57.9728H57.9729H57.9729H57.9729H57.973H57.973H57.973H57.9731H57.9731H57.9731H57.9732H57.9732H57.9732H57.9733H57.9733H57.9733H57.9734H57.9734H57.9734H57.9734H57.9735H57.9735H57.9736H57.9736H57.9737H57.9738H57.9738H57.9739H57.9739H57.974H57.974H57.974H57.9741H57.9741H57.9742H57.9742H57.9743H57.9743H57.9743H57.9744H57.9744H57.9745H57.9745H57.9745H57.9746H57.9746H57.9746H57.9747H57.9747H57.9747H57.9748H57.9748H57.9748H57.9749H57.9749H57.975H57.975H57.975H57.975H57.9751H57.9751H57.9751H57.9752H57.9752H57.9752H57.9753H57.9753H57.9753H57.9754H57.9754C58.5528 27.9522 59.0905 27.4672 59.0947 26.8648C59.27 23.5433 58.4566 20.2967 56.6975 17.1998L56.6975 17.1997C52.04 9.00664 44.036 7.3956 37.2263 7.82954C30.5045 8.25789 24.8851 10.6784 24.6269 10.7991L24.6269 10.7991C24.0623 11.0628 23.7824 11.6967 24.0532 12.2904C24.312 12.8576 24.9388 13.1463 25.5306 12.872C25.7131 12.7929 30.9383 10.5302 37.1596 10.0964C43.4223 9.65966 50.6287 11.0764 54.7676 18.3615L54.7678 18.3619C56.3112 21.0687 57.0272 23.9059 56.8565 26.7726Z" stroke="#1E1E1E" stroke-width="0.5"/>
<path d="M56.8565 26.7726L56.8561 26.78V26.7874C56.8561 27.3466 57.2821 27.9522 57.9406 27.9522H57.9408H57.941H57.9412H57.9414H57.9416H57.9418H57.942H57.9422H57.9424H57.9426H57.9428H57.943H57.9432H57.9434H57.9436H57.9438H57.944H57.9442H57.9443H57.9445H57.9447H57.9449H57.9451H57.9453H57.9455H57.9457H57.9458H57.946H57.9462H57.9464H57.9466H57.9467H57.9469H57.9471H57.9473H57.9474H57.9476H57.9478H57.948H57.9481H57.9483H57.9485H57.9487H57.9488H57.949H57.9492H57.9493H57.9495H57.9497H57.9498H57.95H57.9502H57.9503H57.9505H57.9507H57.9508H57.951H57.9511H57.9513H57.9515H57.9516H57.9518H57.9519H57.9521H57.9523H57.9524H57.9526H57.9527H57.9529H57.953H57.9532H57.9533H57.9535H57.9536H57.9538H57.9539H57.9541H57.9542H57.9544H57.9545H57.9546H57.9548H57.9549H57.9551H57.9552H57.9554H57.9555H57.9556H57.9558H57.9559H57.9561H57.9562H57.9563H57.9565H57.9566H57.9567H57.9569H57.957H57.9571H57.9573H57.9574H57.9575H57.9577H57.9578H57.9579H57.9581H57.9582H57.9583H57.9584H57.9586H57.9587H57.9588H57.9589H57.9591H57.9592H57.9593H57.9594H57.9595H57.9597H57.9598H57.9599H57.96H57.9601H57.9603H57.9604H57.9605H57.9606H57.9607H57.9608H57.9609H57.9611H57.9612H57.9613H57.9614H57.9615H57.9616H57.9617H57.9618H57.9619H57.9621H57.9622H57.9623H57.9624H57.9625H57.9626H57.9627H57.9628H57.9629H57.963H57.9631H57.9632H57.9633H57.9634H57.9635H57.9636H57.9637H57.9638H57.9639H57.964H57.9641H57.9642H57.9643H57.9644H57.9645H57.9646H57.9647H57.9648H57.9648H57.9649H57.965H57.9651H57.9652H57.9653H57.9654H57.9655H57.9656H57.9657H57.9657H57.9658H57.9659H57.966H57.9661H57.9662H57.9662H57.9663H57.9664H57.9665H57.9666H57.9667H57.9667H57.9668H57.9669H57.967H57.9671H57.9671H57.9672H57.9673H57.9674H57.9674H57.9675H57.9676H57.9677H57.9677H57.9678H57.9679H57.968H57.968H57.9681H57.9682H57.9683H57.9683H57.9684H57.9685H57.9685H57.9686H57.9687H57.9687H57.9688H57.9689H57.9689H57.969H57.9691H57.9691H57.9692H57.9693H57.9693H57.9694H57.9695H57.9695H57.9696H57.9696H57.9697H57.9698H57.9698H57.9699H57.9699H57.97H57.9701H57.9701H57.9702H57.9702H57.9703H57.9703H57.9704H57.9705H57.9705H57.9706H57.9706H57.9707H57.9707H57.9708H57.9708H57.9709H57.9709H57.971H57.971H57.9711H57.9711H57.9712H57.9712H57.9713H57.9713H57.9714H57.9714H57.9715H57.9715H57.9716H57.9716H57.9717H57.9717H57.9718H57.9718H57.9719H57.9719H57.9719H57.972H57.972H57.9721H57.9721H57.9722H57.9722H57.9722H57.9723H57.9723H57.9724H57.9724H57.9724H57.9725H57.9725H57.9726H57.9726H57.9726H57.9727H57.9727H57.9727H57.9728H57.9728H57.9729H57.9729H57.9729H57.973H57.973H57.973H57.9731H57.9731H57.9731H57.9732H57.9732H57.9732H57.9733H57.9733H57.9733H57.9734H57.9734H57.9734H57.9734H57.9735H57.9735H57.9736H57.9736H57.9737H57.9738H57.9738H57.9739H57.9739H57.974H57.974H57.974H57.9741H57.9741H57.9742H57.9742H57.9743H57.9743H57.9743H57.9744H57.9744H57.9745H57.9745H57.9745H57.9746H57.9746H57.9746H57.9747H57.9747H57.9747H57.9748H57.9748H57.9748H57.9749H57.9749H57.975H57.975H57.975H57.975H57.9751H57.9751H57.9751H57.9752H57.9752H57.9752H57.9753H57.9753H57.9753H57.9754H57.9754C58.5528 27.9522 59.0905 27.4672 59.0947 26.8648C59.27 23.5433 58.4566 20.2967 56.6975 17.1998L56.6975 17.1997C52.04 9.00664 44.036 7.3956 37.2263 7.82954C30.5045 8.25789 24.8851 10.6784 24.6269 10.7991L24.6269 10.7991C24.0623 11.0628 23.7824 11.6967 24.0532 12.2904C24.312 12.8576 24.9388 13.1463 25.5306 12.872C25.7131 12.7929 30.9383 10.5302 37.1596 10.0964C43.4223 9.65966 50.6287 11.0764 54.7676 18.3615L54.7678 18.3619C56.3112 21.0687 57.0272 23.9059 56.8565 26.7726Z" stroke="white" stroke-width="0.5"/>
<path d="M50.4652 60C50.4652 60 50.187 60 50.0827 59.8944C37.1125 53.456 36.0345 47.0176 35.9998 46.7361C35.9998 46.7009 35.9998 46.6657 35.9998 46.5954V31.1853C35.9998 30.6928 36.3823 30.3058 36.8691 30.3058C42.6066 30.3058 49.8741 24.3599 49.9436 24.3247C50.2566 24.0784 50.7086 24.0784 51.0563 24.3247C51.1259 24.3951 58.3934 30.3058 64.1309 30.3058C64.6177 30.3058 65.0002 30.6928 65.0002 31.1853V46.5954C65.0002 46.5954 65.0002 46.6657 65.0002 46.7361C64.9654 47.0176 63.8527 53.456 50.8825 59.8944C50.7782 59.9648 50.6391 60 50.5 60H50.4652Z" fill="#0B69F6"/>
<path d="M50.4652 60C50.4652 60 50.187 60 50.0827 59.8944C37.1125 53.456 36.0345 47.0176 35.9998 46.7361C35.9998 46.7009 35.9998 46.6657 35.9998 46.5954V31.1853C35.9998 30.6928 36.3823 30.3058 36.8691 30.3058C42.6066 30.3058 49.8741 24.3599 49.9436 24.3247C50.2566 24.0784 50.7086 24.0784 51.0563 24.3247C51.1259 24.3951 58.3934 30.3058 64.1309 30.3058C64.6177 30.3058 65.0002 30.6928 65.0002 31.1853V46.5954C65.0002 46.5954 65.0002 46.6657 65.0002 46.7361C64.9654 47.0176 63.8527 53.456 50.8825 59.8944C50.7782 59.9648 50.6391 60 50.5 60H50.4652Z" fill="white"/>
</g>
</svg>
