<svg width="68" height="68" viewBox="0 0 68 68" fill="none" xmlns="http://www.w3.org/2000/svg">
<mask id="mask0_461_199" style="mask-type:alpha" maskUnits="userSpaceOnUse" x="0" y="0" width="68" height="68">
<rect width="68" height="68" fill="#D9D9D9"/>
</mask>
<g mask="url(#mask0_461_199)">
<path d="M50.7458 55.5683C50.5715 55.5683 50.3938 55.5257 50.2301 55.4369C49.6991 55.1505 49.5013 54.4853 49.7863 53.9515C50.2301 53.1217 50.7316 52.2944 51.2779 51.4907C55.7294 44.9404 59.9654 40.7657 62.0951 38.8601C62.1622 38.7997 62.187 38.724 62.167 38.6364C62.1528 38.5748 62.1128 38.4931 62.001 38.46L35.1286 30.4953C34.5058 30.3106 33.8465 30.3106 33.2237 30.4953L6.35258 38.4612C6.24074 38.4943 6.20071 38.5748 6.18658 38.6375C6.16657 38.7251 6.19129 38.8009 6.2584 38.8613C8.38699 40.7669 12.6242 44.9416 17.0744 51.4919C17.5724 52.2245 18.0339 52.9785 18.4484 53.7337C18.7392 54.264 18.5461 54.9315 18.0186 55.2227C17.49 55.5151 16.8272 55.3209 16.5376 54.7907C16.1573 54.0971 15.7323 53.4023 15.2743 52.7276C10.9547 46.3703 6.86354 42.3364 4.80912 40.4982C4.15453 39.9123 3.86726 39.0163 4.05799 38.157C4.24989 37.2965 4.89271 36.6064 5.73567 36.3567L32.6068 28.392C33.6334 28.0878 34.7189 28.0878 35.7455 28.392L62.6179 36.3567C63.4608 36.6064 64.1036 37.2965 64.2956 38.157C64.4863 39.0151 64.199 39.9123 63.5444 40.4982C61.49 42.3376 57.3976 46.3703 53.078 52.7276C52.5753 53.4674 52.1138 54.2284 51.7065 54.9907C51.5099 55.3588 51.1331 55.5683 50.7446 55.5683H50.7458Z" fill="#1E1E1E"/>
<path d="M50.7458 55.5683C50.5715 55.5683 50.3938 55.5257 50.2301 55.4369C49.6991 55.1505 49.5013 54.4853 49.7863 53.9515C50.2301 53.1217 50.7316 52.2944 51.2779 51.4907C55.7294 44.9404 59.9654 40.7657 62.0951 38.8601C62.1622 38.7997 62.187 38.724 62.167 38.6364C62.1528 38.5748 62.1128 38.4931 62.001 38.46L35.1286 30.4953C34.5058 30.3106 33.8465 30.3106 33.2237 30.4953L6.35258 38.4612C6.24074 38.4943 6.20071 38.5748 6.18658 38.6375C6.16657 38.7251 6.19129 38.8009 6.2584 38.8613C8.38699 40.7669 12.6242 44.9416 17.0744 51.4919C17.5724 52.2245 18.0339 52.9785 18.4484 53.7337C18.7392 54.264 18.5461 54.9315 18.0186 55.2227C17.49 55.5151 16.8272 55.3209 16.5376 54.7907C16.1573 54.0971 15.7323 53.4023 15.2743 52.7276C10.9547 46.3703 6.86354 42.3364 4.80912 40.4982C4.15453 39.9123 3.86726 39.0163 4.05799 38.157C4.24989 37.2965 4.89271 36.6064 5.73567 36.3567L32.6068 28.392C33.6334 28.0878 34.7189 28.0878 35.7455 28.392L62.6179 36.3567C63.4608 36.6064 64.1036 37.2965 64.2956 38.157C64.4863 39.0151 64.199 39.9123 63.5444 40.4982C61.49 42.3376 57.3976 46.3703 53.078 52.7276C52.5753 53.4674 52.1138 54.2284 51.7065 54.9907C51.5099 55.3588 51.1331 55.5683 50.7446 55.5683H50.7458Z" fill="white"/>
<path d="M34.1539 52.0777C33.5511 52.0777 33.0637 51.5865 33.0637 50.9817V39.1394C33.0637 38.5334 33.5523 38.0433 34.1539 38.0433C34.7555 38.0433 35.2441 38.5345 35.2441 39.1394V50.9817C35.2441 51.5877 34.7555 52.0777 34.1539 52.0777Z" fill="#1E1E1E"/>
<path d="M34.1539 52.0777C33.5511 52.0777 33.0637 51.5865 33.0637 50.9817V39.1394C33.0637 38.5334 33.5523 38.0433 34.1539 38.0433C34.7555 38.0433 35.2441 38.5345 35.2441 39.1394V50.9817C35.2441 51.5877 34.7555 52.0777 34.1539 52.0777Z" fill="white"/>
<path d="M24.4703 47.1786C22.7079 47.1786 21.2739 45.737 21.2739 43.965C21.2739 42.1931 22.7079 40.7515 24.4703 40.7515C26.2328 40.7515 27.6668 42.1931 27.6668 43.965C27.6668 45.737 26.2328 47.1786 24.4703 47.1786ZM24.4703 42.9447C23.9111 42.9447 23.4555 43.4028 23.4555 43.965C23.4555 44.5273 23.9111 44.9853 24.4703 44.9853C25.0296 44.9853 25.4852 44.5273 25.4852 43.965C25.4852 43.4028 25.0296 42.9447 24.4703 42.9447Z" fill="#1E1E1E"/>
<path d="M24.4703 47.1786C22.7079 47.1786 21.2739 45.737 21.2739 43.965C21.2739 42.1931 22.7079 40.7515 24.4703 40.7515C26.2328 40.7515 27.6668 42.1931 27.6668 43.965C27.6668 45.737 26.2328 47.1786 24.4703 47.1786ZM24.4703 42.9447C23.9111 42.9447 23.4555 43.4028 23.4555 43.965C23.4555 44.5273 23.9111 44.9853 24.4703 44.9853C25.0296 44.9853 25.4852 44.5273 25.4852 43.965C25.4852 43.4028 25.0296 42.9447 24.4703 42.9447Z" fill="white"/>
<path d="M50.4185 61.0001C48.3582 61.0001 46.4227 59.9632 45.0052 58.1581C43.5877 59.9632 41.651 61.0001 39.5919 61.0001C37.5327 61.0001 35.5961 59.9632 34.1786 58.1581C32.7611 59.9632 30.8244 61.0001 28.7652 61.0001C26.7061 61.0001 24.7694 59.9632 23.3519 58.1581C21.9344 59.9632 19.9977 61.0001 17.9386 61.0001C15.3591 61.0001 12.975 59.3749 11.5587 56.6514C11.2797 56.1152 11.4857 55.4523 12.0202 55.1718C12.5536 54.8913 13.2129 55.0984 13.4919 55.6358C14.5244 57.6219 16.1868 58.8068 17.9386 58.8068C19.6905 58.8068 21.3528 57.6208 22.3854 55.6358C22.5737 55.2736 22.9458 55.0475 23.3519 55.0475C23.7581 55.0475 24.1301 55.2748 24.3185 55.6358C25.351 57.6219 27.0134 58.8068 28.7652 58.8068C30.5171 58.8068 32.1795 57.6208 33.212 55.6358C33.4004 55.2736 33.7724 55.0475 34.1786 55.0475C34.5847 55.0475 34.9568 55.2748 35.1451 55.6358C36.1777 57.6219 37.84 58.8068 39.5919 58.8068C41.3437 58.8068 43.0061 57.6208 44.0386 55.6358C44.227 55.2736 44.599 55.0475 45.0052 55.0475C45.4114 55.0475 45.7834 55.2748 45.9718 55.6358C47.0043 57.6219 48.6678 58.8068 50.4185 58.8068C52.1692 58.8068 53.8327 57.6208 54.8652 55.6358C55.1443 55.0996 55.8036 54.8913 56.3369 55.1718C56.8702 55.4523 57.0774 56.1152 56.7984 56.6514C55.3821 59.3737 52.9968 61.0001 50.4185 61.0001Z" fill="#1E1E1E"/>
<path d="M50.4185 61.0001C48.3582 61.0001 46.4227 59.9632 45.0052 58.1581C43.5877 59.9632 41.651 61.0001 39.5919 61.0001C37.5327 61.0001 35.5961 59.9632 34.1786 58.1581C32.7611 59.9632 30.8244 61.0001 28.7652 61.0001C26.7061 61.0001 24.7694 59.9632 23.3519 58.1581C21.9344 59.9632 19.9977 61.0001 17.9386 61.0001C15.3591 61.0001 12.975 59.3749 11.5587 56.6514C11.2797 56.1152 11.4857 55.4523 12.0202 55.1718C12.5536 54.8913 13.2129 55.0984 13.4919 55.6358C14.5244 57.6219 16.1868 58.8068 17.9386 58.8068C19.6905 58.8068 21.3528 57.6208 22.3854 55.6358C22.5737 55.2736 22.9458 55.0475 23.3519 55.0475C23.7581 55.0475 24.1301 55.2748 24.3185 55.6358C25.351 57.6219 27.0134 58.8068 28.7652 58.8068C30.5171 58.8068 32.1795 57.6208 33.212 55.6358C33.4004 55.2736 33.7724 55.0475 34.1786 55.0475C34.5847 55.0475 34.9568 55.2748 35.1451 55.6358C36.1777 57.6219 37.84 58.8068 39.5919 58.8068C41.3437 58.8068 43.0061 57.6208 44.0386 55.6358C44.227 55.2736 44.599 55.0475 45.0052 55.0475C45.4114 55.0475 45.7834 55.2748 45.9718 55.6358C47.0043 57.6219 48.6678 58.8068 50.4185 58.8068C52.1692 58.8068 53.8327 57.6208 54.8652 55.6358C55.1443 55.0996 55.8036 54.8913 56.3369 55.1718C56.8702 55.4523 57.0774 56.1152 56.7984 56.6514C55.3821 59.3737 52.9968 61.0001 50.4185 61.0001Z" fill="white"/>
<path d="M56.4945 7H11.8129C10.8393 7 10.0481 7.79541 10.0481 8.77428V32.1713C10.0481 32.7773 10.5367 33.2673 11.1383 33.2673C11.7399 33.2673 12.2285 32.7761 12.2285 32.1713V21.6049H15.9547V24.2137C15.9547 25.1002 16.6717 25.8211 17.5535 25.8211H20.0647C20.9465 25.8211 21.6635 25.1002 21.6635 24.2137V21.6049H25.3897V27.6758C25.3897 28.2818 25.8783 28.7719 26.4799 28.7719C27.0816 28.7719 27.5701 28.2807 27.5701 27.6758V21.6049H31.2964V24.2137C31.2964 25.1002 32.0133 25.8211 32.8952 25.8211H35.4064C36.2882 25.8211 37.0052 25.1002 37.0052 24.2137V21.6049H40.7314V27.6758C40.7314 28.2818 41.22 28.7719 41.8216 28.7719C42.4232 28.7719 42.9118 28.2807 42.9118 27.6758V21.6049H46.638V24.2137C46.638 25.1002 47.355 25.8211 48.2368 25.8211H50.748C51.6299 25.8211 52.3468 25.1002 52.3468 24.2137V21.6049H56.0731V32.1713C56.0731 32.7773 56.5616 33.2673 57.1633 33.2673C57.7649 33.2673 58.2535 32.7761 58.2535 32.1713V8.77428C58.2535 7.79541 57.4623 7 56.4886 7H56.4945ZM48.8243 9.19328H50.17V11.2149H48.8243V9.19328ZM33.4815 9.19328H34.8271V11.2149H33.4815V9.19328ZM18.1386 9.19328H19.4843V11.2149H18.1386V9.19328ZM15.9571 9.19328V11.802C15.9571 12.6886 16.6741 13.4094 17.5559 13.4094H20.0671C20.9489 13.4094 21.6659 12.6886 21.6659 11.802V9.19328H25.3921V19.4116H12.2308V9.19328H15.9571ZM19.4843 23.6278H18.1386V21.6061H19.4843V23.6278ZM34.8271 23.6278H33.4815V21.6061H34.8271V23.6278ZM27.5737 19.4128V9.19328H31.2999V11.802C31.2999 12.6886 32.0169 13.4094 32.8987 13.4094H35.4099C36.2917 13.4094 37.0087 12.6886 37.0087 11.802V9.19328H40.7349V19.4116H27.5737V19.4128ZM50.1712 23.6278H48.8255V21.6061H50.1712V23.6278ZM42.9177 19.4128V9.19328H46.6439V11.802C46.6439 12.6886 47.3609 13.4094 48.2427 13.4094H50.7539C51.6357 13.4094 52.3527 12.6886 52.3527 11.802V9.19328H56.0789V19.4116H42.9177V19.4128Z" fill="#1E1E1E"/>
<path d="M56.4945 7H11.8129C10.8393 7 10.0481 7.79541 10.0481 8.77428V32.1713C10.0481 32.7773 10.5367 33.2673 11.1383 33.2673C11.7399 33.2673 12.2285 32.7761 12.2285 32.1713V21.6049H15.9547V24.2137C15.9547 25.1002 16.6717 25.8211 17.5535 25.8211H20.0647C20.9465 25.8211 21.6635 25.1002 21.6635 24.2137V21.6049H25.3897V27.6758C25.3897 28.2818 25.8783 28.7719 26.4799 28.7719C27.0816 28.7719 27.5701 28.2807 27.5701 27.6758V21.6049H31.2964V24.2137C31.2964 25.1002 32.0133 25.8211 32.8952 25.8211H35.4064C36.2882 25.8211 37.0052 25.1002 37.0052 24.2137V21.6049H40.7314V27.6758C40.7314 28.2818 41.22 28.7719 41.8216 28.7719C42.4232 28.7719 42.9118 28.2807 42.9118 27.6758V21.6049H46.638V24.2137C46.638 25.1002 47.355 25.8211 48.2368 25.8211H50.748C51.6299 25.8211 52.3468 25.1002 52.3468 24.2137V21.6049H56.0731V32.1713C56.0731 32.7773 56.5616 33.2673 57.1633 33.2673C57.7649 33.2673 58.2535 32.7761 58.2535 32.1713V8.77428C58.2535 7.79541 57.4623 7 56.4886 7H56.4945ZM48.8243 9.19328H50.17V11.2149H48.8243V9.19328ZM33.4815 9.19328H34.8271V11.2149H33.4815V9.19328ZM18.1386 9.19328H19.4843V11.2149H18.1386V9.19328ZM15.9571 9.19328V11.802C15.9571 12.6886 16.6741 13.4094 17.5559 13.4094H20.0671C20.9489 13.4094 21.6659 12.6886 21.6659 11.802V9.19328H25.3921V19.4116H12.2308V9.19328H15.9571ZM19.4843 23.6278H18.1386V21.6061H19.4843V23.6278ZM34.8271 23.6278H33.4815V21.6061H34.8271V23.6278ZM27.5737 19.4128V9.19328H31.2999V11.802C31.2999 12.6886 32.0169 13.4094 32.8987 13.4094H35.4099C36.2917 13.4094 37.0087 12.6886 37.0087 11.802V9.19328H40.7349V19.4116H27.5737V19.4128ZM50.1712 23.6278H48.8255V21.6061H50.1712V23.6278ZM42.9177 19.4128V9.19328H46.6439V11.802C46.6439 12.6886 47.3609 13.4094 48.2427 13.4094H50.7539C51.6357 13.4094 52.3527 12.6886 52.3527 11.802V9.19328H56.0789V19.4116H42.9177V19.4128Z" fill="white"/>
<path d="M64.2956 38.1581C64.1036 37.2976 63.4608 36.6075 62.6179 36.3578L35.7455 28.3931C34.7189 28.0889 33.6334 28.0889 32.6068 28.3931L5.73567 36.3578C4.89271 36.6075 4.24989 37.2976 4.05799 38.1581C3.86726 39.0162 4.15453 39.9134 4.80912 40.4993C4.93038 40.6082 6.3208 41.9043 7.00953 42.5991L33.2237 34.8285C33.8465 34.6439 34.5058 34.6439 35.1286 34.8285L61.344 42.5991C62.0327 41.9043 63.4232 40.6082 63.5444 40.4993C64.199 39.9134 64.4863 39.0174 64.2956 38.1581Z" fill="#1E1E1E"/>
<path d="M64.2956 38.1581C64.1036 37.2976 63.4608 36.6075 62.6179 36.3578L35.7455 28.3931C34.7189 28.0889 33.6334 28.0889 32.6068 28.3931L5.73567 36.3578C4.89271 36.6075 4.24989 37.2976 4.05799 38.1581C3.86726 39.0162 4.15453 39.9134 4.80912 40.4993C4.93038 40.6082 6.3208 41.9043 7.00953 42.5991L33.2237 34.8285C33.8465 34.6439 34.5058 34.6439 35.1286 34.8285L61.344 42.5991C62.0327 41.9043 63.4232 40.6082 63.5444 40.4993C64.199 39.9134 64.4863 39.0174 64.2956 38.1581Z" fill="#0B69F6"/>
<path d="M64.2956 38.1581C64.1036 37.2976 63.4608 36.6075 62.6179 36.3578L35.7455 28.3931C34.7189 28.0889 33.6334 28.0889 32.6068 28.3931L5.73567 36.3578C4.89271 36.6075 4.24989 37.2976 4.05799 38.1581C3.86726 39.0162 4.15453 39.9134 4.80912 40.4993C4.93038 40.6082 6.3208 41.9043 7.00953 42.5991L33.2237 34.8285C33.8465 34.6439 34.5058 34.6439 35.1286 34.8285L61.344 42.5991C62.0327 41.9043 63.4232 40.6082 63.5444 40.4993C64.199 39.9134 64.4863 39.0174 64.2956 38.1581Z" fill="white"/>
</g>
</svg>
