<svg width="22" height="22" viewBox="0 0 22 22" fill="none" xmlns="http://www.w3.org/2000/svg">
<g clip-path="url(#clip0_12_318)">
<path fill-rule="evenodd" clip-rule="evenodd" d="M14.4375 8.9375C14.4375 5.90563 11.9694 3.4375 8.9375 3.4375C5.90563 3.4375 3.4375 5.90563 3.4375 8.9375C3.4375 11.9694 5.90563 14.4375 8.9375 14.4375C11.9694 14.4375 14.4375 11.9694 14.4375 8.9375ZM0 8.9375C0 4.00125 4.00125 0 8.9375 0C13.8737 0 17.875 4.00125 17.875 8.9375C17.875 10.7835 17.3154 12.4988 16.3566 13.9229L21.4981 19.0644C22.1718 19.7381 22.1718 20.8244 21.4981 21.4981C21.1612 21.835 20.7212 22 20.2812 22C19.8412 22 19.4012 21.835 19.0643 21.4981L13.9228 16.3566C12.4987 17.3154 10.7835 17.875 8.9375 17.875C4.00125 17.875 0 13.8737 0 8.9375Z" fill="white"/>
</g>
<defs>
<clipPath id="clip0_12_318">
<rect width="22" height="22" fill="white"/>
</clipPath>
</defs>
</svg>
